<svg height="960" viewBox="0 0 960 960" width="960" xmlns="http://www.w3.org/2000/svg"><path d="m480 0c-265.097 0-480 214.903-480 480s214.903 480 480 480c265.096 0 480-214.903 480-480s-214.904-480-480-480zm304.056 784.056c-39.507 39.507-85.498 70.519-136.696 92.173-52.981 22.409-109.288 33.771-167.36 33.771s-114.38-11.362-167.36-33.771c-51.198-21.654-97.189-52.666-136.696-92.173-39.507-39.506-70.519-85.497-92.173-136.695-22.409-52.981-33.771-109.29-33.771-167.361s11.362-114.38 33.771-167.36c21.655-51.198 52.667-97.189 92.173-136.695 39.506-39.507 85.498-70.519 136.696-92.173 52.981-22.41 109.289-33.772 167.36-33.772s114.379 11.362 167.359 33.771c51.198 21.655 97.189 52.667 136.696 92.173s70.519 85.498 92.173 136.695c22.41 52.981 33.772 109.29 33.772 167.361s-11.362 114.38-33.771 167.36c-21.654 51.199-52.666 97.19-92.173 136.696z"/></svg>