<svg height="196" viewBox="0 0 170 196" width="170" xmlns="http://www.w3.org/2000/svg"><circle cx="89.982" cy="115.186" fill="#605350" r="80"/><path d="m164.286 144.828c3.662-9.17 5.696-19.166 5.696-29.643 0-12.222-2.751-23.797-7.651-34.157l-4.498-2.467-52.425.342-2.66-1.46-11.708-1.038-9.845 10.896-15.133 43.369s12.782 4.363 18.156 7.052c5.379 2.691 41.348 8.07 41.348 8.07z" fill="#d86e51"/><path d="m95.024 111.924s-5.023-.987-5.939-.82c-.916.166 4.697 1.405 5.253 2.413.556 1.009 1.914 0 1.914 0zm60.295 19.832c-16.833 8.57-36.807 8.43-57.667-6.57-11.832-8.508-20.546 3.652-23.328 8.448 3.573 1.336 7.479 2.881 9.894 4.088.295.147.698.305 1.167.468l17.238 3.814c11.108 2.018 22.942 3.788 22.942 3.788l38.721-.964c2.474-6.194 4.184-12.772 5.046-19.613-3.623 1.493-8.248 3.606-14.013 6.541z" fill="#d3644a"/><path d="m153.81 43.607-18.161-36.31-17.136 7.062 8.731 39.329z" fill="#d86e51"/><path d="m146.07 43.853c-5.583 3.583-16.75 0-17.25 0l4.016 7.714 17.235-6.541c-.509-1.674-1.631-2.695-4.001-1.173z" fill="#d3644a"/><g fill="#23211f"><path d="m145.535 46.886 22.147-8.448-.037-.078c1.947-1.294.519-10.113-3.322-20.161-3.838-10.034-8.658-17.569-10.979-17.235l-.057-.148-21.156 8.087c5.412 5.912 10.084 18.148 11.884 27.339 1.52 7.733 1.52 7.222 1.52 10.644zm-23.698 17.597c1.539-.58 1.852-3.959 1.108-8.949l11.138-4.267c.82-9.277-5.41-23.978-9.673-32.866-1.729-3.579-3.384-4.651-4.189-4.951l-11.548 4.414c-2.902-4.507-5.504-6.992-7.09-6.385-3.143 1.196-1.154 14.04 4.447 28.679 5.596 14.639 12.663 25.527 15.807 24.325zm-53.389 66.975c21.334-24 22.576-53.501 22.592-53.787v-1.266c-8.499-1.081-15.067-2.693-19.578-4.083.279-.833.47-1.71.47-2.637 0-4.595-3.728-8.314-8.319-8.314-4.605 0-8.324 3.72-8.324 8.314 0 .199.047.399.066.598l-21.774 1.73-9.079 5.536-24.484 1.766s6.019 21.168 8.249 23.389c2.625 2.616 11.998 10.913 22.955 15.181 2.793 1.087 22.568 8.241 37.681 13.871z"/><path d="m162.175 133.312s-31.623 20.979-64.25-.811c-.467-.171-1.057-.5-1.807-1.033-6.254-4.456-10.759-1.578-12.377-.176-1.146 1.576-2.384 3.141-3.653 4.691 2.782 1.073 4.854 1.914 5.818 2.364 9.673 4.539 11.396 13.289 11.396 13.289s2.867 9.933-2.117 17.78c-5.528 8.367-17.862 18.661-24.005 23.525 6.033 1.453 12.323 2.243 18.802 2.243 39.081 0 71.596-28.029 78.589-65.078-3.994 1.574-6.396 3.206-6.396 3.206zm-15.703-8.548c.955-.664 1.912-1.378 2.886-2.13 6.579-6.378 13.556-10.47 20.412-12.995-.973-14.185-5.632-27.351-13.043-38.547-16.667-.142-21.249 6.574-45.392 6.574-2.99 0-5.848-.088-8.587-.223-.131 3.612-1.124 19.003-8.631 35.847 4.211 4.372 22.673 29.316 52.355 11.474z"/></g></svg>