<svg enable-background="new 69.5 69.5 160 160" height="160" viewBox="69.5 69.5 160 160" width="160" xmlns="http://www.w3.org/2000/svg"><circle cx="149.5" cy="149.5" fill="#98be95" r="80"/><g fill="none" stroke-miterlimit="10"><path d="m110.5 110.5h78l-39 94zm78 78h-78l39-94z" stroke="#c0e5bd" stroke-width="2"/><path d="m110.5 188.5v-78l94 39zm78-78v78l-94-39z" stroke="#fff" stroke-width="2"/><path d="m149.5 204.342-38.779-16.063-16.063-38.779 16.063-38.778 38.779-16.064 38.779 16.063 16.063 38.779-16.063 38.777z" stroke="#fff" stroke-width="3"/></g><path d="m149.499 209.24c-1.603 0-3.109-.624-4.242-1.758-2.34-2.34-2.34-6.146-.001-8.484 1.133-1.134 2.64-1.758 4.242-1.758s3.109.624 4.243 1.758c1.134 1.133 1.758 2.641 1.758 4.243-.001 1.603-.625 3.108-1.758 4.241-1.134 1.134-2.639 1.758-4.242 1.758zm37.999-15.74c-3.309 0-6-2.691-6-6s2.691-6 6-6 6 2.691 6 6-2.691 6-6 6zm-75.999 0c-1.604 0-3.11-.624-4.243-1.759-1.133-1.134-1.757-2.642-1.756-4.244-.001-1.601.623-3.106 1.756-4.241 1.133-1.134 2.64-1.758 4.243-1.758 3.309 0 6 2.691 6 6 0 3.311-2.691 6.002-6 6.002zm91.739-38.002c-1.602 0-3.108-.624-4.242-1.758-1.133-1.133-1.758-2.641-1.758-4.243.002-1.603.625-3.109 1.76-4.243 1.133-1.133 2.641-1.757 4.242-1.757s3.109.625 4.242 1.758c2.338 2.339 2.34 6.146 0 8.483-1.132 1.136-2.64 1.76-4.244 1.76zm-107.479 0c-1.602 0-3.108-.624-4.242-1.756-1.134-1.135-1.758-2.643-1.757-4.245s.625-3.109 1.759-4.242c1.132-1.133 2.639-1.758 4.242-1.758s3.109.625 4.242 1.758 1.757 2.64 1.757 4.242c0 1.603-.624 3.108-1.757 4.242-1.134 1.134-2.641 1.759-4.244 1.759zm15.739-37.998c-3.309 0-6-2.691-6-6s2.691-6 6-6 6 2.691 6 6-2.691 6-6 6zm76-.001c-3.309 0-5.999-2.692-5.999-6.001 0-3.308 2.69-5.999 6-5.999s6 2.691 6 5.999c0 3.309-2.692 6.001-6.001 6.001zm-37.999-15.739c-1.603 0-3.109-.624-4.243-1.758-1.133-1.133-1.757-2.64-1.757-4.242s.624-3.109 1.757-4.242c1.134-1.134 2.641-1.758 4.243-1.758 1.603 0 3.108.624 4.242 1.756 2.34 2.34 2.34 6.147 0 8.487-1.134 1.133-2.639 1.757-4.242 1.757z" fill="#98be95"/><path d="m149.499 91.26c1.151 0 2.303.439 3.183 1.317 1.758 1.758 1.758 4.607 0 6.365-.88.878-2.031 1.317-3.183 1.317s-2.304-.439-3.183-1.318c-1.757-1.757-1.757-4.606 0-6.363.879-.879 2.032-1.318 3.183-1.318m38 15.739c2.483 0 4.5 2.014 4.5 4.499 0 2.486-2.015 4.501-4.501 4.501-2.484 0-4.499-2.016-4.499-4.501 0-2.484 2.015-4.499 4.5-4.499m-76.001.001c2.485 0 4.5 2.015 4.5 4.5s-2.015 4.5-4.5 4.5-4.5-2.015-4.5-4.5 2.015-4.5 4.5-4.5m-15.737 37.997c1.151 0 2.303.439 3.182 1.318 1.757 1.757 1.757 4.606 0 6.363-.88.881-2.031 1.319-3.184 1.319-1.151 0-2.303-.438-3.182-1.317-1.758-1.759-1.756-4.606.002-6.364.878-.879 2.029-1.319 3.182-1.319m107.479.001c1.15 0 2.303.439 3.182 1.318 1.758 1.757 1.758 4.605.001 6.362-.88.881-2.032 1.319-3.185 1.319-1.151 0-2.303-.438-3.182-1.317-1.758-1.758-1.757-4.606.002-6.365.88-.877 2.03-1.317 3.182-1.317m-91.741 38c2.484 0 4.5 2.016 4.5 4.5 0 2.486-2.016 4.502-4.5 4.502-2.486 0-4.5-2.016-4.499-4.502-.001-2.484 2.013-4.5 4.499-4.5m75.999.002c2.484 0 4.5 2.016 4.5 4.5 0 2.486-2.016 4.5-4.5 4.5s-4.5-2.014-4.5-4.5c0-2.484 2.016-4.5 4.5-4.5m-38 15.74c1.152 0 2.304.439 3.184 1.318 1.758 1.758 1.756 4.606 0 6.362-.88.879-2.031 1.318-3.183 1.318s-2.304-.439-3.182-1.318c-1.758-1.758-1.759-4.604-.001-6.362.879-.878 2.031-1.318 3.182-1.318m.001-110.48c-2.004 0-3.887.78-5.304 2.197-2.924 2.924-2.924 7.682 0 10.605 1.417 1.417 3.301 2.197 5.304 2.197s3.886-.78 5.303-2.195c2.925-2.925 2.925-7.684 0-10.608-1.417-1.416-3.3-2.196-5.303-2.196zm38 15.739c-4.136 0-7.5 3.364-7.5 7.499 0 4.136 3.364 7.501 7.499 7.501 4.136 0 7.501-3.365 7.501-7.501 0-4.135-3.364-7.499-7.5-7.499zm-76.001.001c-4.136 0-7.5 3.364-7.5 7.5s3.364 7.5 7.5 7.5 7.5-3.364 7.5-7.5-3.364-7.5-7.5-7.5zm-15.737 37.997c-2.005 0-3.889.781-5.305 2.2-2.923 2.921-2.924 7.679-.001 10.604 1.419 1.417 3.302 2.196 5.304 2.196 2.004 0 3.888-.781 5.305-2.198 1.417-1.416 2.196-3.3 2.196-5.303s-.779-3.887-2.196-5.303c-1.418-1.416-3.3-2.196-5.303-2.196zm107.479.001c-2.004 0-3.887.78-5.303 2.195-1.418 1.417-2.197 3.301-2.198 5.304 0 2.004.778 3.888 2.196 5.304 1.416 1.417 3.299 2.197 5.303 2.197s3.889-.78 5.306-2.198c2.924-2.923 2.923-7.681-.001-10.604-1.416-1.418-3.3-2.198-5.303-2.198zm-91.741 38c-2.004 0-3.888.779-5.304 2.197-1.417 1.416-2.196 3.301-2.195 5.304-.001 2.002.778 3.886 2.194 5.303 1.417 1.418 3.301 2.198 5.305 2.198 4.136 0 7.5-3.365 7.5-7.502s-3.364-7.5-7.5-7.5zm75.999.002c-4.137 0-7.5 3.364-7.5 7.5s3.363 7.5 7.5 7.5c4.136 0 7.5-3.364 7.5-7.5s-3.364-7.5-7.5-7.5zm-38 15.74c-2.004 0-3.887.779-5.304 2.197-2.923 2.924-2.923 7.682.002 10.604 1.416 1.417 3.299 2.197 5.303 2.197 2.003 0 3.886-.78 5.303-2.197 1.416-1.415 2.196-3.298 2.197-5.302 0-2.004-.78-3.887-2.197-5.305-1.417-1.414-3.3-2.194-5.304-2.194z" fill="#fff"/></svg>