<svg enable-background="new 69.5 69.5 160 160" height="160" viewBox="69.5 69.5 160 160" width="160" xmlns="http://www.w3.org/2000/svg"><circle cx="149.5" cy="149.5" fill="#edf4f7" r="80"/><path d="m147.209 209.083v-9.166c-29.109 0-52.708-23.599-52.708-52.709 0-29.109 23.599-52.708 52.708-52.708.769 0 1.53.028 2.292.058v-25.058h-.001c-44.183 0-80 35.817-80 80 0 44.184 35.817 80 80 80h.001v-20.475c-.762.03-1.523.058-2.292.058z" fill="#edf4f7"/><path d="m94.501 147.208c0 29.11 23.599 52.709 52.708 52.709v9.166c.769 0 1.53-.028 2.292-.058v-34.254c-2.441-.061-4.367-2.08-4.367-4.465 0-2.41 2.035-4.38 4.367-4.399v-3.318l-.185.013c-6.017 0-10.787-4.845-10.787-11.01 0-4.844 2.348-7.56 8.586-9.834 1.001-.359 1.771-.635 2.386-.861v-9.852l-.037-.003c-2.862 0-4.771 1.835-4.771 4.697 0 .733.073 1.394.367 2.716h-7.339c-.147-1.248-.221-1.836-.221-2.569 0-6.679 5.064-11.669 11.891-11.669l.109.005v-29.664c-.762-.03-1.523-.058-2.292-.058-29.108 0-52.707 23.599-52.707 52.708zm51.146 4.972c0 2.127 1.688 3.742 3.744 3.742l.109-.009v-7.611c-2.735.867-3.853 1.957-3.853 3.878z" fill="#98be95"/><path d="m149.392 155.922c-2.056 0-3.744-1.615-3.744-3.742 0-1.921 1.117-3.011 3.854-3.878v-7.405c-.615.227-1.385.502-2.386.861-6.238 2.274-8.586 4.99-8.586 9.834 0 6.165 4.771 11.01 10.787 11.01l.185-.013v-6.676zm-4.258 14.385c0 2.387 1.926 4.405 4.367 4.467v-8.865c-2.332.019-4.367 1.987-4.367 4.398zm4.258-46.09c-6.826 0-11.891 4.99-11.891 11.669 0 .733.073 1.321.221 2.569h7.339c-.294-1.322-.367-1.982-.367-2.716 0-2.862 1.908-4.697 4.771-4.697l.037.003v-6.823z" fill="#f9f5ee"/><path d="m229.5 149.5c0-44.182-35.817-80-79.999-80v25.058c30.578 1.205 55 26.361 55 57.234 0 30.872-24.422 56.028-55 57.233v20.475c44.182 0 79.999-35.816 79.999-80z" fill="#e1ebef"/><path d="m154.308 135.812c0-2.85-1.893-4.75-4.807-4.768v9.852c1.771-.652 2.229-.888 3.045-1.487 1.101-.734 1.762-2.055 1.762-3.597z" fill="#98be95"/><path d="m161.501 135.959c0 3.743-1.615 7.119-4.33 9.101-1.688 1.175-3.303 1.908-7.413 3.156l-.257.086v7.611c2.413-.046 3.49-1.513 3.706-4.908h7.192c-.146 3.376-.588 4.99-1.91 6.897-1.872 2.74-5.521 4.621-8.988 4.687v3.318l.035-.005c2.496 0 4.479 1.981 4.479 4.404 0 2.495-1.981 4.477-4.404 4.477l-.109-.012v34.254c30.578-1.205 55-26.361 55-57.233 0-30.873-24.422-56.029-55-57.234v29.664c6.841.054 11.999 5.095 11.999 11.737z" fill="#92b78d"/><path d="m149.61 174.783-.109-.012v-8.864l.035-.005c2.496 0 4.479 1.981 4.479 4.404 0 2.497-1.983 4.477-4.405 4.477zm.148-26.567c4.11-1.248 5.726-1.981 7.413-3.156 2.715-1.981 4.33-5.357 4.33-9.101 0-6.642-5.158-11.683-12-11.737v6.823c2.914.017 4.807 1.918 4.807 4.768 0 1.541-.66 2.862-1.762 3.597-.816.599-1.273.835-3.045 1.487v7.405zm8.731 9.686c1.322-1.907 1.764-3.521 1.91-6.897h-7.192c-.216 3.396-1.293 4.862-3.706 4.908v6.676c3.469-.066 7.116-1.944 8.988-4.687z" fill="#f2efeb"/></svg>