<svg height="520" viewBox="0 0 265.184 520" width="265.184" xmlns="http://www.w3.org/2000/svg" xmlns:xlink="http://www.w3.org/1999/xlink"><pattern id="a" height="200" patternUnits="userSpaceOnUse" width="200"><image height="200" width="200" xlink:href="http://pointless-corp.staging.vigetx.com/assets/images/patterns/bg-paper.png"/></pattern><linearGradient id="b" gradientUnits="userSpaceOnUse" x1="263.839" x2="263.839" y1="98.951" y2="65.459"><stop offset="0" stop-color="#08080a"/><stop offset=".059" stop-color="#2d2d2d"/><stop offset=".387" stop-color="#3f3f40"/><stop offset=".715" stop-color="#4f4e4f"/><stop offset=".973" stop-color="#2c2c2c"/><stop offset="1" stop-color="#040403"/></linearGradient><path d="m238.917 6.438-1.011-.153c-4.423-.66-11.818-1.764-20.556-2.64-7.748-.775-15.566-1.317-23.13-1.839l-.89-.062c-21.919-1.518-42.055-1.744-52.107-1.744-5.074 0-8.233.055-8.637.062-.404-.007-3.566-.062-8.638-.062-10.051 0-30.188.226-52.108 1.743l-.898.062c-7.562.523-15.376 1.064-23.122 1.84-8.736.875-16.135 1.979-20.555 2.64l-1.009.153c-11.929 1.767-23.575 4.987-23.575 22.817v461.487c0 17.832 11.646 21.05 23.572 22.823l1.03.151c4.419.662 11.813 1.766 20.537 2.64 7.747.774 15.564 1.314 23.123 1.84l.898.06c21.918 1.517 42.05 1.744 52.102 1.744 5.076 0 8.239-.055 8.644-.064.403.01 3.568.064 8.643.064h.004c10.053 0 30.185-.228 52.099-1.744l.897-.06c7.56-.525 15.378-1.065 23.122-1.84 8.724-.874 16.119-1.978 20.538-2.64l1.028-.151c11.928-1.773 23.572-4.991 23.572-22.823v-461.487c-.001-17.83-11.645-21.05-23.573-22.817zm-11.961.89c4.999.646 9.072 1.268 11.584 1.641 8.063 1.198 15.15 2.882 18.79 8.944-3.64-6.062-10.727-7.747-18.79-8.944-2.512-.373-6.585-.995-11.584-1.641-.999-.13-2.036-.26-3.106-.387 1.07.127 2.105.257 3.106.387zm11.584 503.703c-2.512.373-6.585.996-11.584 1.641-1.001.129-2.036.258-3.106.387 1.07-.129 2.107-.258 3.106-.387 4.999-.645 9.072-1.268 11.584-1.641 8.063-1.195 15.15-2.882 18.79-8.944-3.64 6.062-10.726 7.749-18.79 8.944z" fill="#414042"/><path d="m259.928 63.984v-34.729c0-15.771-9.657-18.544-21.388-20.286-4.019-.598-12.035-1.833-21.445-2.777-8.011-.803-16.092-1.35-23.941-1.894-32.363-2.239-60.561-1.674-60.561-1.674h-.015s-28.197-.565-60.56 1.674c-7.849.544-15.931 1.091-23.941 1.894-9.409.944-17.427 2.179-21.446 2.777-11.73 1.741-21.389 4.515-21.389 20.286v461.487c0 15.772 9.659 18.55 21.389 20.289 4.019.596 12.037 1.834 21.446 2.774 8.01.807 16.09 1.354 23.941 1.896 32.363 2.239 60.56 1.674 60.56 1.674h.015s28.197.565 60.561-1.674c7.85-.541 15.931-1.089 23.941-1.896 9.41-.94 17.427-2.179 21.445-2.774 11.73-1.739 21.388-4.517 21.388-20.289z" fill="#0c0c0c"/><circle cx="44.851" cy="26.104" fill="#231f20" r="3.294"/><circle cx="44.851" cy="26.104" fill="#414042" r="2.289" stroke="#1d1b1c" stroke-miterlimit="10" stroke-width=".25"/><g fill="#231f20"><circle cx="131.82" cy="25.526" r="6.585"/><circle cx="131.82" cy="25.526" r="6.585"/><path d="m131.818 30.547c-2.234 0-4.221-1.504-4.83-3.658-.75-2.664.804-5.444 3.469-6.197.447-.127.907-.191 1.367-.191 2.236 0 4.221 1.505 4.828 3.659.367 1.291.206 2.646-.449 3.816s-1.727 2.016-3.018 2.38c-.448.127-.907.191-1.367.191z"/></g><path d="m0 100.441h2.688v81.796h-2.688z" fill="#252525"/><path d="m262.494 65.458h2.689v33.492h-2.689z" fill="url(#b)"/><path d="m14.115 43.236h235.958v418.141h-235.958z" fill="#8db38a"/><path d="m14.115 43.236h235.958v418.141h-235.958z" fill="url(#a)"/><circle cx="132.592" cy="259.999" fill="#98be95" r="79.804"/><path clip-rule="evenodd" d="m93.688 221.095h77.808l-38.904 93.77zm77.808 77.81h-77.808l38.904-93.771z" fill="none" stroke="#c0e5bd" stroke-miterlimit="10" stroke-width="2"/><path clip-rule="evenodd" d="m93.688 298.905v-77.81l93.769 38.904zm77.808-77.81v77.81l-93.769-38.906z" fill="none" stroke="#fff" stroke-miterlimit="10" stroke-width="2"/><path d="m132.592 314.707-38.684-16.023-16.024-38.685 16.024-38.682 38.684-16.024 38.683 16.023 16.024 38.683-16.024 38.684z" fill="none" stroke="#fff" stroke-miterlimit="10" stroke-width="3"/><path clip-rule="evenodd" d="m132.59 319.598c-1.599 0-3.103-.623-4.233-1.754-1.131-1.132-1.755-2.636-1.755-4.234 0-1.6.623-3.104 1.754-4.234 1.13-1.132 2.634-1.755 4.233-1.755s3.104.623 4.235 1.755c1.132 1.131 1.755 2.635 1.755 4.234s-.623 3.104-1.755 4.234-2.636 1.754-4.234 1.754zm37.906-15.702c-3.302 0-5.988-2.687-5.988-5.989s2.687-5.989 5.988-5.989c3.303 0 5.989 2.687 5.989 5.989s-2.686 5.989-5.989 5.989zm-75.812 0c-1.6 0-3.104-.623-4.235-1.756-1.131-1.131-1.753-2.636-1.752-4.237 0-1.598.622-3.102 1.753-4.232 1.131-1.132 2.635-1.755 4.235-1.755 3.302 0 5.989 2.687 5.989 5.988-.002 3.304-2.688 5.992-5.99 5.992zm91.514-37.91c-1.6 0-3.104-.623-4.235-1.755-1.131-1.129-1.754-2.634-1.753-4.234.001-1.599.624-3.103 1.756-4.234 1.13-1.131 2.634-1.754 4.233-1.754s3.104.623 4.235 1.753c2.333 2.337 2.333 6.136 0 8.469-1.131 1.132-2.635 1.755-4.236 1.755zm-107.216 0c-1.6 0-3.103-.622-4.234-1.752-2.334-2.336-2.333-6.136.002-8.471 1.129-1.131 2.633-1.754 4.233-1.754s3.104.623 4.236 1.753c2.334 2.335 2.334 6.134 0 8.469-1.132 1.132-2.637 1.755-4.237 1.755zm91.514-37.904c-3.302 0-5.988-2.687-5.988-5.99 0-3.302 2.687-5.988 5.988-5.988 3.303 0 5.989 2.687 5.989 5.988 0 3.303-2.686 5.99-5.989 5.99zm-75.813 0c-3.302 0-5.989-2.687-5.989-5.989s2.687-5.989 5.989-5.989 5.989 2.687 5.989 5.989c0 3.303-2.687 5.989-5.989 5.989zm37.908-15.702c-1.6 0-3.104-.624-4.235-1.755-2.334-2.333-2.334-6.132 0-8.468 1.132-1.131 2.636-1.754 4.235-1.754s3.103.623 4.234 1.754c1.132 1.131 1.755 2.636 1.755 4.235s-.623 3.104-1.755 4.235c-1.133 1.131-2.636 1.753-4.234 1.753z" fill="#98be95" fill-rule="evenodd"/><path d="m132.59 201.902c1.148 0 2.297.438 3.174 1.315 1.754 1.753 1.754 4.595 0 6.349-.877.875-2.024 1.313-3.173 1.313s-2.298-.438-3.175-1.315c-1.752-1.752-1.752-4.594 0-6.347.877-.876 2.025-1.315 3.174-1.315m37.906 15.702c2.479 0 4.489 2.008 4.489 4.488 0 2.479-2.009 4.49-4.489 4.49-2.479 0-4.488-2.011-4.488-4.49s2.011-4.488 4.488-4.488m-75.813 0c2.479 0 4.489 2.011 4.489 4.489 0 2.479-2.01 4.489-4.489 4.489s-4.489-2.01-4.489-4.489 2.01-4.489 4.489-4.489m-15.7 37.905c1.149 0 2.298.438 3.175 1.314 1.752 1.753 1.752 4.595 0 6.348-.878.877-2.027 1.315-3.177 1.315-1.149 0-2.297-.438-3.174-1.313-1.753-1.755-1.751-4.596.003-6.35.877-.876 2.025-1.314 3.173-1.314m107.216 0c1.149 0 2.298.438 3.175 1.314 1.751 1.754 1.753 4.595 0 6.348-.877.877-2.026 1.316-3.176 1.316-1.148 0-2.298-.438-3.174-1.316-1.754-1.752-1.752-4.594.002-6.348.876-.876 2.025-1.314 3.173-1.314m-91.515 37.907c2.479 0 4.489 2.011 4.489 4.488 0 2.481-2.01 4.492-4.489 4.492s-4.489-2.011-4.488-4.492c-.001-2.477 2.008-4.488 4.488-4.488m75.812.002c2.479 0 4.489 2.011 4.489 4.489 0 2.479-2.011 4.489-4.489 4.489-2.479 0-4.488-2.01-4.488-4.489 0-2.478 2.009-4.489 4.488-4.489m-37.907 15.702c1.149 0 2.298.438 3.175 1.315 1.754 1.753 1.754 4.595 0 6.348-.877.877-2.025 1.314-3.174 1.314s-2.297-.438-3.173-1.314c-1.753-1.754-1.755-4.595-.001-6.348.876-.876 2.024-1.315 3.173-1.315m.001-110.218c-2 0-3.88.779-5.295 2.193-2.92 2.921-2.919 7.672 0 10.59 1.415 1.415 3.296 2.194 5.296 2.194 1.999 0 3.878-.778 5.293-2.191 1.416-1.416 2.195-3.297 2.195-5.297s-.779-3.881-2.194-5.296-3.295-2.193-5.295-2.193zm37.906 15.702c-4.129 0-7.488 3.359-7.488 7.488 0 4.13 3.359 7.49 7.488 7.49 4.13 0 7.489-3.36 7.489-7.49 0-4.129-3.359-7.488-7.489-7.488zm-75.813 0c-4.129 0-7.489 3.36-7.489 7.489s3.36 7.489 7.489 7.489 7.489-3.36 7.489-7.489-3.36-7.489-7.489-7.489zm-15.7 37.905c-2.001 0-3.882.779-5.295 2.195-2.918 2.918-2.92 7.669-.002 10.589 1.416 1.415 3.296 2.193 5.296 2.193s3.882-.779 5.297-2.193c2.919-2.921 2.919-7.671.001-10.59-1.415-1.416-3.296-2.194-5.297-2.194zm107.216 0c-2 0-3.881.779-5.295 2.194-1.414 1.414-2.193 3.294-2.194 5.294-.001 2.001.778 3.882 2.194 5.296 1.412 1.414 3.293 2.193 5.294 2.193s3.882-.779 5.297-2.194c2.918-2.917 2.918-7.667.002-10.588-1.417-1.416-3.298-2.195-5.298-2.195zm-91.515 37.907c-2 0-3.881.779-5.296 2.194-1.414 1.414-2.193 3.295-2.192 5.295-.001 1.999.777 3.881 2.191 5.296 1.415 1.416 3.295 2.195 5.296 2.195 4.129 0 7.489-3.361 7.489-7.492 0-4.129-3.359-7.488-7.488-7.488zm75.812.002c-4.129 0-7.488 3.359-7.488 7.489s3.359 7.489 7.488 7.489c4.13 0 7.489-3.359 7.489-7.489s-3.359-7.489-7.489-7.489zm-37.907 15.702c-2.001 0-3.881.779-5.295 2.195-1.414 1.413-2.193 3.294-2.192 5.294s.78 3.88 2.194 5.295 3.294 2.193 5.294 2.193c1.999 0 3.88-.778 5.295-2.192 1.415-1.415 2.194-3.295 2.194-5.296s-.779-3.881-2.194-5.296c-1.415-1.414-3.296-2.193-5.296-2.193z" fill="#fff"/></svg>