<svg height="636.773" viewBox="0 0 907 636.773" width="907" xmlns="http://www.w3.org/2000/svg" xmlns:xlink="http://www.w3.org/1999/xlink"><pattern id="a" height="200" patternUnits="userSpaceOnUse" width="200"><image height="200" width="200" xlink:href="http://pointless-corp.staging.vigetx.com/assets/images/patterns/bg-paper.png"/></pattern><path d="m873.556 0c18.394 0 33.444 15.05 33.444 33.445v569.883c0 18.396-15.05 33.445-33.444 33.445h-840.112c-18.394 0-33.444-15.048-33.444-33.445v-569.883c0-18.395 15.05-33.445 33.444-33.445h840.112z" fill="#353133"/><path d="m902.985 603.328c0 16.229-13.203 29.432-29.43 29.432h-840.111c-16.229 0-29.432-13.203-29.432-29.432v-569.883c0-16.229 13.202-29.432 29.432-29.432h840.111c16.227 0 29.43 13.203 29.43 29.432z"/><circle cx="42.126" cy="318.387" fill="#231f20" r="5.352"/><path d="m45.482 318.385c0 1.479-1.199 2.676-2.675 2.676-1.474 0-2.676-1.197-2.676-2.676 0-1.473 1.202-2.674 2.676-2.674 1.476 0 2.675 1.201 2.675 2.674z" fill="#0f1f48"/><path d="m828.072 597.979c0 1.473-1.204 2.676-2.675 2.676h-743.794c-1.471 0-2.675-1.203-2.675-2.676v-559.184c0-1.473 1.204-2.675 2.675-2.675h743.795c1.471 0 2.675 1.202 2.675 2.675v559.184z" fill="#1d1d1f"/><path d="m868.203 298.32c11.084 0 20.068 8.986 20.068 20.064 0 11.086-8.984 20.068-20.068 20.068-11.079 0-20.063-8.982-20.063-20.068 0-11.077 8.984-20.064 20.063-20.064z" fill="#191717"/><path d="m861.517 314.373c0-1.471 1.204-2.674 2.676-2.674h8.026c1.47 0 2.676 1.203 2.676 2.674v8.027c0 1.473-1.206 2.676-2.676 2.676h-8.026c-1.472 0-2.676-1.203-2.676-2.676zm-1.339 0v8.027c0 2.211 1.801 4.014 4.015 4.014h8.026c2.212 0 4.012-1.803 4.012-4.014v-8.027c0-2.213-1.8-4.014-4.012-4.014h-8.026c-2.214 0-4.015 1.801-4.015 4.014z" fill="#838486"/><path d="m81.603 38.795h743.795v559.183h-743.795z" fill="#798699"/><path d="m81.603 38.795h743.795v559.183h-743.795z" fill="url(#a)"/><path d="m453.5 238.121c-44.329 0-80.267 35.936-80.267 80.264 0 32.154 18.912 59.875 46.209 72.688 21.199-14.443 35.134-38.756 35.134-66.344l.001.059c.02 27.176 13.562 51.174 34.251 65.68 26.612-13.07 44.938-40.432 44.938-72.082.001-44.329-35.937-80.265-80.266-80.265z" fill="#8895a9"/><path d="m454.577 261.96h-.021c-.522 0-1.134 1.334-1.622 2.713l-4.152-.357c-1.338-.115-2.686.033-3.937.432l-.032.012c-.438.137-.438.647 0 .786l.032.01c1.251.396 2.599.543 3.937.43l3.824-.328c-.13.41-.243.795-.334 1.111-.145.496-.523.883-1.016 1.033-.758.232-1.436.643-1.982 1.191-.869.867-1.401 2.064-1.401 3.387v4.705c0 .836-.682 1.514-1.515 1.514l-26.236 3.01c-1.637 0-2.964 1.326-2.964 2.963v4.959c0 1.639 1.327 2.963 2.964 2.963l26.322 1.316c.794.041 1.426.688 1.438 1.484.096 5.961.795 10.881 2.095 16.875l1.325 6.121c.084.395.006.803-.218 1.137-.225.332-.571.561-.968.631l-3.99.717c-2.713.486-4.686 1.012-4.686 3.768v.389c0 1.545 1.252 2.795 2.795 2.795l8.238-.619c.181-.016.354.08.438.246.215.408.641.689 1.137.689h.529z" fill="#fff"/><path d="m489.031 281.607-26.235-3.01c-.834 0-1.513-.678-1.513-1.514v-4.705c0-1.322-.537-2.52-1.403-3.387-.548-.549-1.225-.959-1.982-1.191-.494-.15-.875-.537-1.015-1.033-.09-.316-.204-.701-.335-1.111l3.826.328c1.333.113 2.685-.033 3.934-.43l.032-.01c.441-.139.441-.649 0-.786l-.032-.012c-1.249-.398-2.601-.547-3.934-.432l-4.154.357c-.49-1.379-1.098-2.713-1.623-2.713h-.02v66.081h.53c.493 0 .921-.281 1.135-.689.083-.166.255-.262.44-.246l8.238.619c1.543 0 2.794-1.25 2.794-2.795v-.389c0-2.756-1.975-3.281-4.686-3.768l-3.992-.717c-.394-.07-.745-.299-.968-.631-.222-.334-.298-.742-.215-1.137l1.322-6.121c1.3-5.994 2.002-10.914 2.096-16.875.013-.797.641-1.443 1.438-1.484l26.321-1.316c1.638 0 2.964-1.324 2.964-2.963v-4.959c.001-1.634-1.325-2.961-2.963-2.961z" fill="#d4e9f4"/><path d="m458.045 285.496c0 1.914-1.553 3.469-3.468 3.469s-3.469-1.555-3.469-3.469 1.554-3.469 3.469-3.469 3.468 1.555 3.468 3.469m3.373-3.783c0-1.002-.812-1.816-1.812-1.816s-1.814.814-1.814 1.816c0 1.004.813 1.814 1.814 1.814s1.812-.81 1.812-1.814" fill="#8895a9"/><path d="m488.828 390.467c-20.688-14.506-34.231-38.504-34.251-65.68v73.838c12.28-.162 23.893-3.072 34.251-8.158z" fill="#d4e9f4"/><path d="m419.442 391.072c10.339 4.854 21.877 7.58 34.058 7.58l1.077-.027v-73.838l-.001-.059c0 27.588-13.934 51.901-35.134 66.344z" fill="#fff"/></svg>