<svg height="171" viewBox="0 0 160 171" width="160" xmlns="http://www.w3.org/2000/svg"><circle cx="80" cy="91" fill="#605350" r="80"/><path d="m140 137.27c0-7.324-2.969-13.961-7.774-18.762-4.801-4.805-11.438-7.775-18.765-7.775h-19.727c0 7.585-6.151 13.734-13.734 13.734-7.587 0-13.734-6.149-13.734-13.734h-19.729c-7.329 0-13.962 2.971-18.763 7.775-4.801 4.801-7.774 11.438-7.774 18.762v6.617c14.659 16.618 36.098 27.113 60 27.113s45.341-10.495 60-27.113z" fill="#263a49"/><path d="m42.988 110.997c-5.903.793-11.203 3.498-15.214 7.512-4.801 4.8-7.774 11.437-7.774 18.761v6.617c10.713 12.145 25.047 21.004 41.321 24.898zm97.012 32.89v-6.617c0-7.324-2.969-13.961-7.774-18.762-4.011-4.014-9.312-6.719-15.214-7.512l-18.333 57.789c16.273-3.894 30.608-12.753 41.321-24.898z" fill="#34869d"/><path d="m83.02 155.906c0 4.212-3.413 7.628-7.625 7.628-4.215 0-7.628-3.416-7.628-7.628 0-4.217 3.413-7.631 7.628-7.631 4.211 0 7.625 3.414 7.625 7.631" fill="#34869d"/><path d="m90.441 147.58c0 2.209-1.785 3.995-3.992 3.995-2.202 0-3.989-1.786-3.989-3.995 0-2.204 1.787-3.994 3.989-3.994 2.207-.001 3.992 1.789 3.992 3.994" fill="#d86e51"/><circle cx="80" cy="91" fill="none" r="80"/><path d="m124.035 54.364c-1.205-23.276-20.461-41.777-44.039-41.777-23.574 0-42.826 18.501-44.031 41.778-3.527.876-6.141 4.054-6.141 7.851 0 4.471 3.622 8.099 8.098 8.099l.137-.007c4.63 14.261 16.325 25.333 30.956 29.085v11.34h.013l.004.003c1.266 1.471 2.514 3.932 3.452 6.905.528 1.639.966 3.438 1.276 5.316 1.874.959 3.99 1.51 6.24 1.51 7.583 0 13.734-6.149 13.734-13.734h-2.75v-11.341c14.631-3.755 26.326-14.825 30.956-29.084l.141.007c4.47 0 8.099-3.628 8.099-8.099 0-3.798-2.619-6.976-6.145-7.852z" fill="#fff"/><circle cx="80" cy="91" fill="#605350" r="80"/><path d="m140 137.27c0-7.324-2.969-13.961-7.774-18.762-4.801-4.805-11.438-7.775-18.765-7.775h-19.727c0 7.585-6.151 13.734-13.734 13.734-7.587 0-13.734-6.149-13.734-13.734h-19.729c-7.329 0-13.962 2.971-18.763 7.775-4.801 4.801-7.774 11.438-7.774 18.762v6.617c14.659 16.618 36.098 27.113 60 27.113s45.341-10.495 60-27.113z" fill="#263a49"/><path d="m42.988 110.997c-5.903.793-11.203 3.498-15.214 7.512-4.801 4.8-7.774 11.437-7.774 18.761v6.617c10.713 12.145 25.047 21.004 41.321 24.898zm97.012 32.89v-6.617c0-7.324-2.969-13.961-7.774-18.762-4.011-4.014-9.312-6.719-15.214-7.512l-18.333 57.789c16.273-3.894 30.608-12.753 41.321-24.898z" fill="#34869d"/><path d="m138.253 58.252c0-32.169-26.066-58.252-58.253-58.252-32.169 0-58.254 26.083-58.254 58.252v6.154c.018.433.049.941.096 1.509.436 7.731 3.135 32.927 26.166 51.985 2.945 2.44 2.945 12.981-10.068 10.037-2.068-.465-8.085-4.184-8.103 2.652 0 7.897 11.315 18.528 25.571 18.528 20.189 0 20.818-19.569 17.075-31.177-.938-2.974-2.187-5.435-3.452-6.905l-.004-.003h44.434c1.804 0 3.558.199 5.258.543 16.856-17.955 19.049-38.78 19.439-45.671.047-.563.077-1.069.095-1.499z" fill="#23211f"/><path d="m83.02 155.906c0 4.212-3.413 7.628-7.625 7.628-4.215 0-7.628-3.416-7.628-7.628 0-4.217 3.413-7.631 7.628-7.631 4.211 0 7.625 3.414 7.625 7.631" fill="#34869d"/><path d="m90.441 147.58c0 2.209-1.785 3.995-3.992 3.995-2.202 0-3.989-1.786-3.989-3.995 0-2.204 1.787-3.994 3.989-3.994 2.207-.001 3.992 1.789 3.992 3.994" fill="#d86e51"/><circle cx="80" cy="91" fill="none" r="80"/><path d="m124.035 54.364c-1.205-23.276-20.461-41.777-44.039-41.777-23.574 0-42.826 18.501-44.031 41.778-3.527.876-6.141 4.054-6.141 7.851 0 4.471 3.622 8.099 8.098 8.099l.137-.007c4.63 14.261 16.325 25.333 30.956 29.085v11.34h.013l.004.003c1.266 1.471 2.514 3.932 3.452 6.905.528 1.639.966 3.438 1.276 5.316 1.874.959 3.99 1.51 6.24 1.51 7.583 0 13.734-6.149 13.734-13.734h-2.75v-11.341c14.631-3.755 26.326-14.825 30.956-29.084l.141.007c4.47 0 8.099-3.628 8.099-8.099 0-3.798-2.619-6.976-6.145-7.852z" fill="#fff"/><path d="m124.405 54.364c-1.205-23.276-20.461-41.777-44.039-41.777l-.37.009v111.849l.374.022c7.583 0 13.734-6.149 13.734-13.734h-2.75v-11.341c14.631-3.755 26.326-14.825 30.956-29.084l.141.007c4.47 0 8.099-3.628 8.099-8.099 0-3.798-2.619-6.976-6.145-7.852z" fill="#f9f5ee"/><path d="m80.13.001h-.264c-30.91.069-56.157 24.21-58.001 54.679h14.038c25.378 0 44.093-24.558 44.093-24.558s18.718 24.558 44.097 24.558h14.039c-1.847-30.469-27.091-54.61-58.002-54.679z" fill="#23211f"/><path d="m124.093 54.68h14.039c-1.847-30.469-27.091-54.61-58.002-54.679h-.134v30.121c0 .001 18.718 24.558 44.097 24.558z" fill="#1d1b1a"/></svg>