<svg enable-background="new -43.5 0.5 24 20" height="20" viewBox="-43.5 .5 24 20" width="24" xmlns="http://www.w3.org/2000/svg"><path d="m-20.165 1.108c-.952.564-2.004.975-3.126 1.194-.899-.957-2.177-1.556-3.595-1.556-2.719 0-4.923 2.205-4.923 4.925 0 .386.044.762.127 1.122-4.094-.205-7.719-2.166-10.149-5.145-.422.729-.664 1.573-.664 2.476 0 1.709.869 3.217 2.19 4.099-.807-.025-1.566-.246-2.23-.615v.062c0 2.387 1.697 4.377 3.949 4.828-.414.114-.848.176-1.297.176-.318 0-.625-.032-.927-.094.627 1.96 2.445 3.384 4.601 3.422-1.687 1.318-3.809 2.104-6.115 2.104-.397 0-.79-.023-1.175-.07 2.18 1.4 4.768 2.218 7.548 2.218 9.054 0 14.01-7.503 14.01-14.013l-.016-.636c.964-.691 1.799-1.561 2.458-2.547-.883.391-1.834.657-2.83.775 1.018-.609 1.798-1.574 2.164-2.725z"/></svg>