<svg xmlns="http://www.w3.org/2000/svg" width="16" height="24.001" viewBox="65.5 -4.5 16 24.001" enable-background="new 65.5 -4.5 16 24.001"><path d="M75.588 15.115c-.399-.236-.769-.646-.914-1.037-.147-.396-.129-1.197-.129-2.59v-6.154h5.549v-4.283h-5.549v-5.551h-3.414c-.152 1.236-.434 2.258-.84 3.059-.407.802-.945 1.488-1.619 2.06-.672.572-1.766 1.013-2.707 1.316v3.399h3.26v8.417c0 1.099.115 1.937.345 2.515.231.576.644 1.123 1.239 1.637.595.509 1.312.904 2.156 1.185.844.276 1.49.414 2.589.414.965 0 1.862-.099 2.696-.29.832-.197 1.761-.536 2.785-1.018v-3.785c-1.201.79-2.41 1.184-3.627 1.184-.682-.002-1.287-.159-1.82-.478z"/></svg>