<svg enable-background="new 69.5 69.5 160 160" height="160" viewBox="69.5 69.5 160 160" width="160" xmlns="http://www.w3.org/2000/svg"><circle cx="149.5" cy="149.5" fill="#605350" r="80"/><path d="m194.5 187c0 4.125-3.375 7.5-7.5 7.5h-75c-4.125 0-7.5-3.375-7.5-7.5v-75c0-4.125 3.375-7.5 7.5-7.5h75c4.125 0 7.5 3.375 7.5 7.5z" fill="#1b2b33"/><path d="m187 104.5h-18.75c0 10.355-8.395 18.75-18.75 18.75s-18.75-8.395-18.75-18.75h-18.75c-4.125 0-7.5 3.375-7.5 7.5v75c0 4.125 3.375 7.5 7.5 7.5h75c4.125 0 7.5-3.375 7.5-7.5v-75c0-4.125-3.375-7.5-7.5-7.5z" fill="#263a49"/><path d="m152.438 151.26c0 3.158-2.562 5.721-5.718 5.721-3.162 0-5.723-2.562-5.723-5.721 0-3.163 2.561-5.723 5.723-5.723 3.155 0 5.718 2.56 5.718 5.723" fill="#34869d"/><path d="m158.004 145.015c0 1.657-1.342 2.996-2.996 2.996-1.65 0-2.992-1.339-2.992-2.996 0-1.653 1.342-2.996 2.992-2.996 1.654.001 2.996 1.343 2.996 2.996" fill="#d86e51"/><path d="m149.5 127.75c12.82 0 23.25-10.43 23.25-23.25h-1.5c0 11.993-9.758 21.75-21.75 21.75s-21.75-9.757-21.75-21.75h-1.5c0 12.82 10.43 23.25 23.25 23.25z" fill="#20323d"/><path d="m190.75 183.25h-82.5c-.826 0-1.5.675-1.5 1.5v2.25c0 2.895 2.355 5.25 5.25 5.25h75c2.895 0 5.25-2.355 5.25-5.25v-2.25c0-.825-.676-1.5-1.5-1.5z" fill="#233742"/><path d="m208.016 126.541c-.473-2.001-.799-1.619-.799-1.619l-3.304.038s-.335-.374-.761 1.638c-.424 2.01-.762 5.437-.762 5.437l6.514-.075c0-.001-.418-3.419-.888-5.419zm2.144 49.546-7.993.092-.501-43.537 7.993-.092zm-3.822-51.525-.029-2.633c-.522-1.614-1.041-1.824-1.56.018l.03 2.634zm2.372 52.067.021 1.67-5.087.063-.021-1.67z" fill="#f06a29"/><path d="m202.16 175.883 7.992-.092.014 1.039-7.993.094zm1.678-50.854.254-.993c.143-.554.602-1.068.602-1.068l1.699-.021s.471.505.625 1.055l.276.987zm-2.188 6.956 7.992-.093.012 1.04-7.992.093z" fill="#231f20"/><path d="m202.75 176.773 5.846-.066-.01-.786-5.846.068zm1.318-51.986.223-.875c.127-.502.475-.771.475-.771l1.037-.012s.205.143.365.606c.161.463.245 1.024.245 1.024zm-1.83 8.109 5.847-.067-.01-.785-5.847.067z" fill="#404041"/><path d="m204.355 176.633.681-.008-.007-.555-.682.008zm.711-53.438s-.084.225-.156.699c-.072.477-.031.767-.031.767l-.482.007s.092-.419.154-.769c.065-.349.332-.692.332-.692zm-1.22 9.561.682-.008-.008-.556-.682.008z" fill="#58595b"/><path d="m205.008 122.786.34-.004s-.07-.473-.061-.835c.008-.361.207-1.349.021-.977-.185.372-.304.843-.302 1.006zm-.574 54.333.51-.004.01.871-.51.006zm-.53-43.285.65-.007.478 40.961-.653.008zm.448-8.406s-.317 1.096-.401 2.786l-.21 3.175.763-.008s-.096-2.801-.028-4.225c.065-1.422.145-1.752.145-1.752z" fill="#f47340"/><g fill="#fff"><path d="m209.928 156.328-2.088.861c-.043.021-.082.064-.082.131v.334c0 .111.074.156.172.111l.121-.054 1.883-.817zm-2.172-4.961c0 .783.626 1.273 1.326 1.273.445 0 .756-.242.756-.242l.045.063-.014-1.069c-.041.414-.379.74-.805.74-.453 0-.82-.367-.82-.82s.367-.819.82-.819c.422 0 .756.321.803.731l-.012-.992c-.223-.164-.49-.258-.773-.258-.512 0-.811.311-.811.311l-.117-.41c-.008-.053-.074-.083-.127-.083h-.127c-.084 0-.146.061-.146.144zm1.631-1.829c.16 0 .313-.031.461-.075l-.008-.551c-.102.044-.209.078-.322.085v-2.267c0-.069-.055-.132-.131-.14l-.211-.016c-.807 0-1.404.618-1.416 1.421.011.928.756 1.543 1.627 1.543zm-.303-2.428v1.875c-.439-.03-.852-.417-.852-.936 0-.472.403-.916.852-.939zm-1.02-2.741h-.164c-.082 0-.143.06-.143.143v.818h-.824c-.074 0-.143.06-.143.135l.025.238c.011.075.066.143.142.143h.8v.388c0 .082.061.143.143.143h.164c.074 0 .143-.061.143-.143v-.388h1.598l-.006-.516h-1.592v-.818c0-.083-.066-.143-.143-.143zm1.916 16.492c-.187-.074-.388-.117-.599-.117-.896 0-1.623.727-1.623 1.623s.728 1.622 1.623 1.622c.226 0 .438-.046.632-.128zm-3.099-6.781c.174 0 .314-.141.314-.314 0-.181-.143-.32-.314-.32-.182 0-.322.141-.322.32 0 .173.14.314.322.314zm1.055.524c-.098-.045-.172 0-.172.112v.325c0 .064.039.107.082.13l2.078.877-.007-.575-1.86-.814z"/><circle cx="207.611" cy="160.015" r=".85"/><path d="m207.76 153.629v.27c0 .074.068.142.145.142h1.996l-.006-.552h-1.99c-.077-.003-.145.066-.145.14z"/></g><path d="m97.285 134.488c-.133-9.251-2.561-9.753-2.561-9.753-6.381-2.299-11.682.589-11.682.589-4.451 2.547-3.309 9.202-3.309 9.202.745 5.525 3.798 7.492 3.798 7.492 5.085 3.487 9.543 2.575 9.543 2.575 4.063-.74 4.211-10.105 4.211-10.105z" fill="#263a49"/><path d="m97.928 121.93.144 1.022zm-.174-1.17.106.703zm.783 18.388-.021.129zm-.086.454-.006.017zm.088-.475c.256-1.506.826-6.488-.458-16.093l.138 1.076c1.103 8.897.566 13.564.32 15.017zm-.074.409-.008.037zm.019-.099-.014.064zm-10.918-17.816c.352-.055.706-.102 1.058-.139-.352.038-.706.084-1.058.139zm-4.67 1.444.37-.192zm-.47.269.299-.176zm-.471.31.217-.146zm1.32-.774c.634-.307 1.318-.558 2.025-.76-.708.202-1.39.452-2.025.76zm6.497-1.481c.325-.021.644-.032.958-.04-.314.006-.632.019-.958.04zm1.142-.044c.31-.006.615-.007.908-.001-.293-.006-.598-.005-.908.001zm-2.231.131c.335-.033.667-.061.995-.081-.328.02-.659.047-.995.081zm-3.331.619c.693-.196 1.41-.348 2.131-.462-.721.114-1.437.265-2.131.462zm13.159 17.213-.019.095z" fill="#331d1d"/><path d="m89.678 121.395.095-.006zm-2.196.238.084-.012zm3.248-.284.184-.004zm-2.106.133.059-.007zm-5.349 1.388-.007.003.002-.001zm14.282-3.37c.07.429.137.848.197 1.26-.061-.41-.127-.831-.197-1.26zm.303 1.963.067.467zm.211 1.489.01.082zm-12.77-.842.051-.016z" fill="#f06a29"/><path d="m88.529 122.349c3.414-.008 6.679.621 9.689 1.762l-.138-1.076-.01-.082-.144-1.022-.067-.467-.106-.703c-.061-.412-.127-.831-.197-1.26l-4.144.009s-.35 1.655-1.591 1.835c-.293-.006-.599-.005-.908.001l-.184.004c-.314.008-.633.02-.958.04l-.095.006c-.328.021-.66.048-.995.081l-.059.007c-.352.037-.706.084-1.058.139l-.084.012c-.721.114-1.438.266-2.131.462l-.051.016c-.707.202-1.392.453-2.025.76l-.006.002c1.704-.34 3.462-.522 5.262-.526zm7.09-1.223c.449-.002.812.359.812.809 0 .448-.36.812-.808.812-.448.001-.812-.36-.813-.809.001-.448.363-.811.809-.812z" fill="#34869d"/><path d="m98.492 139.402-.008.034zm-15.224-16.529h-.002l.004-.001zm-1.77 1.119c.146-.123.301-.237.457-.349-.156.112-.31.226-.457.349zm17.041 15.135-.002.021zm-.068.374-.006.035zm.045-.224-.005.03zm-15.791-16.119.171-.093zm-.553.339.254-.163zm16.273 16.121-.002.014zm.012-.045-.006.028z" fill="#f06a29"/><path d="m98.443 139.632.002-.014.006-.017.006-.028.008-.037.006-.035.014-.064.008-.034.019-.095.005-.03.021-.129.002-.021c.246-1.453.783-6.12-.32-15.017-3.011-1.141-6.275-1.77-9.689-1.762-1.801.004-3.559.187-5.26.523l-.002.001-.372.192-.171.093-.299.176-.254.163-.217.146c-.156.111-.311.226-.457.349-4.344 3.637-3.869 11.974-1.509 16.448.001.002 2.553 4.836 9.999 6.65 0 0 2.481.409 2.486 2.416l4.344-.009c-.001.001-.464-2.656 1.624-9.865zm-14.911 2.387s-3.053-1.967-3.798-7.492c0 0-1.143-6.655 3.309-9.202 0 0 5.301-2.888 11.682-.589 0 0 2.428.502 2.561 9.753 0 0-.148 9.364-4.21 10.104-.001.001-4.459.913-9.544-2.574z" fill="#34869d"/><circle cx="95.622" cy="121.937" fill="#263a49" r=".811"/><path d="m79.798 164.541s-1.112 6.659 3.35 9.188c0 0 5.312 2.866 11.683.539 0 0 2.426-.514 2.521-9.765 0 0-.189-9.362-4.255-10.085 0 0-4.461-.895-9.532 2.612-.002.001-3.045 1.982-3.767 7.511z" fill="#263a49"/><path d="m97.878 178.229.102-.703.067-.465.139-1.041.008-.062.13-1.039.005-.042.02-.176.072-.614.021-.188.065-.621.016-.146.063-.642.004-.048c.143-1.5.236-2.858.293-4.084v-.01l.024-.562.002-.05.018-.514.003-.08.014-.479v-.084l.006-.465.003-.074.003-.453v-.063l-.002-.433v-.065l-.004-.414v-.057l-.008-.399v-.052l-.014-.387-.001-.037-.014-.383-.001-.017-.017-.373-.001-.009c-.08-1.5-.215-2.496-.309-3.039l-.004-.021-.023-.127-.005-.03-.021-.098-.005-.033-.014-.064-.008-.033-.009-.039-.005-.028-.005-.017-.004-.014c-2.117-7.199-1.666-9.856-1.666-9.856l-4.344.009c.002 2.008-2.477 2.426-2.477 2.426-7.438 1.848-9.969 6.69-9.971 6.694-2.341 4.483-2.779 12.825 1.58 16.44l.457.347.225.149.246.156.305.178.168.091.369.188.006.005.009.002c.635.303 1.315.549 2.022.75l.061.017c.691.192 1.404.341 2.12.45l.093.015c.353.054.704.099 1.053.133l.071.007c.329.031.655.057.979.077l.104.007c.324.018.643.028.953.033l.188.003c.31.005.614.005.907-.002 1.24.175 1.598 1.828 1.598 1.828l4.143-.01c.071-.43.137-.849.197-1.263zm-14.731-4.5c-4.462-2.528-3.35-9.188-3.35-9.188.722-5.529 3.766-7.51 3.766-7.51 5.071-3.506 9.532-2.612 9.532-2.612 4.065.724 4.255 10.085 4.255 10.085-.095 9.251-2.521 9.766-2.521 9.766-6.37 2.326-11.682-.541-11.682-.541zm11.781 3.333c-.001-.446.362-.811.809-.811.449-.002.812.359.813.807s-.36.813-.808.813c-.449.004-.814-.359-.814-.809z" fill="#327d8e"/><circle cx="95.739" cy="177.062" fill="#263a49" r=".811"/></svg>