<svg height="16" viewBox="0 0 76 16" width="76" xmlns="http://www.w3.org/2000/svg"><path d="m.168.561 1.592.001c.973.001 1.633.143 1.98.427.352.284.527.787.527 1.509v6.052c0 .721-.174 1.223-.521 1.502-.354.281-1.012.42-1.984.42h-.36v4.866l-1.234-.001v-14.776zm1.232 1.092.002 7.737.33-.002c.492.002.82-.1.986-.303s.248-.664.248-1.377l-.002-4.37c0-.715-.082-1.175-.25-1.378-.162-.205-.49-.306-.982-.307zm8.834 1.931v8.746c0 1.269-.168 2.13-.496 2.584-.332.452-.92.681-1.77.679-.834.002-1.418-.229-1.748-.69-.332-.462-.496-1.32-.496-2.576v-8.747c0-1.242.166-2.092.5-2.549.334-.456.92-.687 1.762-.685.844 0 1.428.229 1.756.682.326.455.492 1.307.492 2.556zm-1.293-.201c0-.749-.072-1.261-.215-1.538-.14-.278-.394-.416-.757-.416-.355-.001-.604.135-.74.404-.143.271-.211.787-.211 1.548v9.146c0 .769.072 1.287.213 1.555.145.266.395.4.756.399.359.002.607-.133.746-.397.139-.269.209-.785.209-1.555v-9.146zm3.469-2.812h1.311v14.777l-1.311-.001zm3.498.002 1.688.001 2.051 13.897h.021l-.186-13.895 1.119.001v14.778l-1.711-.005-2.031-13.704h-.039l.176 13.706-1.088-.002v-14.777zm5.965.006 4.207.003v1.171h-1.479v13.604h-1.25l-.003-13.606h-1.475zm5.5.006h1.232v13.604l2.227.001v1.173l-3.459-.003v-14.775zm4.654.002 3.418.002v1.174l-2.185-.001.002 7.123 2.09.003v1.161l-2.09-.002-.002 4.146 2.244.002v1.172l-3.477-.002v-14.778zm8.994 2.351v1.412h-1.291v-1.372c0-.58-.057-.98-.174-1.197s-.324-.325-.623-.326c-.285 0-.484.123-.604.365-.115.244-.174.676-.174 1.297v.721c0 .301.01.777.061 1.095.08.477.232.799.391 1.112l1.621 3.519c.305.566.498 1.028.619 1.466.125.438.174.76.174 1.228v.1c0 1.282-.154 2.147-.469 2.595s-.875.67-1.676.67c-.783-.002-1.332-.182-1.639-.542s-.461-1.042-.461-2.042v-1.646l1.301.002v1.591c0 .602.059 1.01.176 1.225.115.213.332.32.641.319.318.001.537-.12.654-.364.121-.244.182-.779.182-1.607v-.12c0-.38-.049-.626-.096-.937-.051-.352-.172-.688-.301-.947l-1.711-3.748c-.279-.538-.455-.955-.582-1.334-.125-.383-.158-.881-.158-1.162v-.865c0-1.148.154-1.947.461-2.399.311-.45.838-.675 1.59-.675.789 0 1.334.178 1.639.533.303.354.449 1.032.449 2.033zm5.565.005v1.411h-1.291v-1.373c0-.58-.057-.979-.174-1.197-.117-.217-.326-.326-.623-.326-.287 0-.486.121-.604.364-.113.245-.174.677-.174 1.298v.721c0 .301.01.777.062 1.096.078.476.23.798.389 1.111l1.621 3.52c.307.564.496 1.026.619 1.464.123.437.176.762.176 1.229v.1c0 1.28-.158 2.145-.473 2.594-.312.447-.871.67-1.676.669-.783 0-1.328-.181-1.637-.542s-.459-1.042-.459-2.043v-1.644l1.299.001v1.592c0 .603.059 1.01.176 1.223.115.215.33.321.641.32.316.001.537-.12.656-.363.119-.244.18-.779.18-1.607v-.121c0-.38-.051-.625-.096-.935-.053-.353-.174-.688-.301-.948l-1.713-3.748c-.279-.539-.453-.955-.58-1.336s-.156-.879-.156-1.16v-.863c0-1.149.15-1.949.461-2.4.307-.449.836-.674 1.588-.674.789 0 1.334.178 1.637.533.302.354.452 1.031.452 2.034zm10.24.025v1.413l-1.301-.002v-1.372c0-.574-.062-.972-.18-1.192-.119-.22-.334-.331-.639-.331-.279 0-.471.126-.582.375-.111.25-.166.776-.166 1.578v9.146c0 .82.059 1.355.176 1.604.117.246.33.369.641.369.264.002.459-.114.572-.348.115-.234.178-.632.178-1.193v-1.592h1.301v1.645c0 1.008-.152 1.69-.455 2.047-.305.357-.852.535-1.633.535-.773-.002-1.311-.232-1.613-.693-.307-.46-.459-1.319-.459-2.574v-8.747c0-1.249.152-2.102.459-2.555.303-.453.84-.68 1.613-.679.791.001 1.334.177 1.637.532.299.354.451 1.033.451 2.034zm6.063.676v8.748c0 1.268-.166 2.129-.496 2.582-.328.455-.918.682-1.766.68-.838.001-1.42-.231-1.75-.692-.332-.461-.496-1.319-.496-2.574v-8.746c0-1.242.166-2.092.498-2.551.336-.456.922-.686 1.766-.686.84.002 1.428.23 1.752.684.328.454.492 1.307.492 2.555zm-1.291-.2c0-.75-.07-1.262-.215-1.539s-.395-.416-.76-.416c-.354-.002-.602.135-.74.404-.141.271-.211.787-.211 1.547l.002 9.148c0 .768.07 1.285.215 1.553.141.266.393.399.756.4.355 0 .604-.133.742-.4.141-.268.211-.784.211-1.552v-9.145zm3.466-2.814 1.885.002c.971.002 1.631.142 1.975.424.342.279.512.783.512 1.512l.004 5.152c0 .613-.115 1.049-.34 1.301-.227.254-.629.407-1.205.461.615.041 1.041.188 1.283.441.24.254.357.694.357 1.322v4.166l-1.312-.002.004-3.715c0-.692-.098-1.145-.289-1.352-.191-.208-.582-.311-1.182-.312l-.453.001-.004 5.377-1.234-.003v-14.775zm1.235 1.094.004 7.205h.436c.562 0 .938-.102 1.127-.305.188-.203.279-.655.279-1.357v-3.859c0-.708-.094-1.165-.283-1.373-.186-.206-.561-.311-1.123-.311zm5.392-1.088 1.594.002c.971 0 1.631.143 1.982.428.348.283.521.786.521 1.508l.004 6.053c0 .721-.176 1.223-.523 1.502-.354.28-1.014.421-1.98.42h-.361l-.002 4.865h-1.234v-14.778zm1.235 1.093.002 7.736h.328c.492 0 .824-.102.986-.305.166-.203.25-.663.25-1.377l-.002-4.37c0-.713-.086-1.174-.248-1.378-.166-.202-.496-.306-.988-.306zm1.535 12.064 1.371.001-.002 1.623-1.369-.002z" fill="#fff"/></svg>