<svg xmlns="http://www.w3.org/2000/svg" width="30" height="20" viewBox="0 0 30 20"><path fill="#fff" d="M2.5 3.499h25c.828 0 1.5-.672 1.5-1.5s-.672-1.499-1.5-1.499h-25c-.828 0-1.5.671-1.5 1.499s.672 1.5 1.5 1.5zm25 5h-25c-.828 0-1.5.672-1.5 1.5 0 .829.672 1.501 1.5 1.501h25c.828 0 1.5-.672 1.5-1.501 0-.828-.672-1.5-1.5-1.5zm0 8h-25c-.828 0-1.5.672-1.5 1.501 0 .828.672 1.5 1.5 1.5h25c.828 0 1.5-.672 1.5-1.5 0-.829-.672-1.501-1.5-1.501z"/><path stroke="#fff" stroke-miterlimit="10" d="M2.5 3.499h25c.828 0 1.5-.672 1.5-1.5s-.672-1.499-1.5-1.499h-25c-.828 0-1.5.671-1.5 1.499s.672 1.5 1.5 1.5zm25 5h-25c-.828 0-1.5.672-1.5 1.5 0 .829.672 1.501 1.5 1.501h25c.828 0 1.5-.672 1.5-1.501 0-.828-.672-1.5-1.5-1.5zm0 8h-25c-.828 0-1.5.672-1.5 1.501 0 .828.672 1.5 1.5 1.5h25c.828 0 1.5-.672 1.5-1.5 0-.829-.672-1.501-1.5-1.501z" fill="none"/></svg>