<svg id="stamp" version="1.1" id="Layer_1" xmlns="http://www.w3.org/2000/svg" xmlns:xlink="http://www.w3.org/1999/xlink" viewBox="0, 0, 275, 275" width="275" height="275" xml:space="preserve">
<defs>
<path id="border" d="M137.5,0C61.558,0,0,61.563,0,137.505S61.558,275,137.5,275c75.941,0,137.496-61.555,137.5-137.495
	C275,61.562,213.441,0,137.5,0z M137.5,274C62.234,274,1,212.769,1,137.505C1,62.236,62.234,1,137.5,1
	C212.767,1,274,62.236,274,137.505C273.996,212.769,212.763,274,137.5,274z"/>
<circle id="hit" cx="137.5" cy="137.5" r="137.5"/>
<circle id="circle" cx="74" cy="74" r="74"/>
<path id="trike" d="M21.004,8.013c-10.422,0-18.872,8.449-18.872,18.873c0,10.423,8.45,18.872,18.872,18.872
	c10.424,0,18.873-8.449,18.873-18.872C39.877,16.462,31.428,8.013,21.004,8.013z M21.004,41.175
	c-7.891,0-14.289-6.397-14.289-14.289c0-7.893,6.398-14.289,14.289-14.289c7.893,0,14.289,6.396,14.289,14.289
	C35.293,34.778,28.896,41.175,21.004,41.175z M56.303,27.437c0.001-0.406,0.001-0.794,0.001-1.153c0-2.314-0.274-4.621-0.804-6.882
	c-0.004,0.002-0.008,0.004-0.011,0.006c-0.409-1.887-0.961-3.721-1.657-5.483H48.39c1.081,2.281,1.878,4.722,2.364,7.272
	c-0.006,0.002-0.012,0.004-0.018,0.006v0.076c0.33,1.656,0.513,3.331,0.513,5.005c0,0.28,0,0.599,0,0.905
	c-4.153,0.953-7.261,4.654-7.261,9.104c0,5.164,4.183,9.34,9.353,9.34c5.159,0,9.338-4.176,9.338-9.34
	C62.679,32.167,60.006,28.672,56.303,27.437z M53.341,41.385c-2.812,0-5.097-2.284-5.097-5.092c0-2.043,1.215-3.802,2.956-4.612
	c-0.031,1.919-0.066,3.904-0.102,5.675l5.05,0.094c0.03-1.653,0.068-3.513,0.102-5.325c1.307,0.918,2.176,2.445,2.176,4.169
	C58.426,39.101,56.135,41.385,53.341,41.385z M40.001,16.291C34.199,5.8,20.992,1.998,10.502,7.798
	c-2.597,1.436-4.784,3.326-6.517,5.517L0,10.155c2.139-2.702,4.838-5.034,8.043-6.806c12.945-7.158,29.246-2.467,36.406,10.482
	L40.001,16.291z"/>
<path id="bear" d="M26.963,27.553c-5.911-2.202-13.65-5.002-14.744-5.427c-4.29-1.672-7.954-4.92-8.986-5.942
	C2.36,15.317,0,7.028,0,7.028l9.587-0.69l3.553-2.169l8.523-0.675c-0.006-0.079-0.029-0.157-0.029-0.231
	c0-1.8,1.464-3.263,3.263-3.263c1.792,0,3.254,1.463,3.254,3.263c0,0.362-0.073,0.709-0.183,1.03
	c1.766,0.544,4.333,1.172,7.661,1.598v0.492c-0.007,0.121-0.492,11.664-8.845,21.054L26.963,27.553z M89.174,68.894
	c0.854,0.458,1.938,0.902,3.247,1.091c0,0-2.668,4.376-8.493,3.192c-0.686-0.141-1.739-0.438-1.739-0.438l-0.083-0.056l-1.564-0.568
	c-1.609,0.307-3.264,0.486-4.963,0.486c-10.058,0-18.806-5.549-23.39-13.744c0.02-0.027,0.042-0.059,0.062-0.086
	c-0.037-0.488-0.074-0.978-0.074-1.476c0-0.22,0.025-0.434,0.033-0.651c0.031-0.913,0.122-1.81,0.278-2.686
	c-0.004-0.023-0.005-0.047-0.009-0.07c-0.871-0.252-1.754-0.447-2.639-0.615c-1.652-0.312-3.32-0.49-4.98-0.49
	c-0.684,0-6.41,0.083-12.819,2.845l1.279,2.001c-1.537,0.67-3.016,1.496-4.421,2.461l-0.873-1.367c-0.016,0-0.022,0.004-0.039,0.004
	c-1.799,0-3.258-1.459-3.258-3.255c0-1.228,0.684-2.284,1.684-2.837l0.021-0.037c0,0,7.876-5.849,10.816-10.301
	c1.953-3.068,0.828-6.958,0.828-6.958s-0.672-3.425-4.464-5.203c-0.372-0.178-1.188-0.507-2.274-0.925
	c0.501-0.612,0.986-1.216,1.432-1.837c0.635-0.549,2.4-1.68,4.844,0.067c0.292,0.209,0.522,0.339,0.711,0.403
	c5.164,3.45,10.264,4.16,14.506,3.782c6.246-0.555,10.636-3.466,10.636-3.466s8.084-5.497,16.321,0.229l6.758-2.471l-1.951-5.364
	l-0.459-1.264c0,0-14.355-6.287-25.687,4.694c-0.379,0.292-0.752,0.576-1.127,0.832c-11.614,6.982-18.84-2.779-20.486-4.49
	c2.938-6.591,3.324-12.616,3.376-14.025c1.069,0.049,2.188,0.078,3.358,0.078c9.556,0,11.279-2.692,17.994-2.563l-0.01-0.026
	c0.392-0.011,0.79-0.023,1.195-0.023c17.649,0,32.564,12.563,36.325,29.138c0.598,2.634,0.924,5.365,0.924,8.167
	c0,10.735-4.593,20.407-11.897,27.183C88.391,68.454,88.765,68.675,89.174,68.894z"/>
<path id="bear-leg" d="M28.354,0c-9.31,0-17.032,6.729-18.611,15.586c0.146,0.9,0.146,1.824-0.021,2.756
	c-0.085-0.027-0.172-0.045-0.257-0.07c-0.008,0.218-0.033,0.432-0.033,0.651c0,0.498,0.037,0.987,0.074,1.476
	c-0.02,0.027-0.042,0.059-0.062,0.086C6.884,24.129-1.6,33.004,0.266,36.109c1.032,1.633,5.839,9.237,5.839,9.237l-4.78,3.112
	l2.759,4.232L19.517,42.6l-1.875-3.375c7.487,1.881,16.957-2.35,18.046-2.854c1.306-0.55,2.535-1.244,3.673-2.06l-0.003-0.002
	c0,0,1.166-0.893,1.71-1.387l0,0c3.81-3.461,6.209-8.446,6.209-13.999C47.276,8.472,38.804,0,28.354,0z"/>
<path id="tophat" d="M2.323,15.403C0.13,9.671-0.646,4.646,0.583,4.177c0.621-0.236,1.638,0.73,2.776,2.5L7.88,4.946
	c0.313,0.122,0.962,0.541,1.639,1.94c1.665,3.479,4.11,9.229,3.788,12.861l-4.359,1.668c0.288,1.953,0.166,3.274-0.434,3.506
	C7.279,25.39,4.514,21.128,2.323,15.403z M17.789,18.035l8.664-3.306l-0.017-0.027c0.763-0.512,0.206-3.964-1.295-7.891
	c-1.502-3.933-3.392-6.882-4.301-6.756L20.819,0l-8.281,3.166c2.12,2.317,3.949,7.107,4.653,10.7
	C17.786,16.893,17.789,16.688,17.789,18.035z"/>
<path id="pedal-motion" stroke="#FF0000" d="M12.5,6.5c0-1.643-0.589-3.054-1.768-4.232C9.554,1.089,8.143,0.5,6.5,0.5
		S3.446,1.089,2.268,2.268C1.089,3.446,0.5,4.857,0.5,6.5c0,1.643,0.589,3.054,1.768,4.232C3.446,11.911,4.857,12.5,6.5,12.5
		s3.054-0.589,4.232-1.768C11.911,9.554,12.5,8.143,12.5,6.5"/>
<path id="text" d="M14.088,71.85c-1.413-0.614-2.031-2.218-1.409-3.65c0.581-1.342,2.212-1.97,3.571-1.379
	c1.396,0.606,2.033,2.218,1.434,3.596C17.087,71.794,15.448,72.44,14.088,71.85z M24.941,40.865l1.559-1.813
	c1.057-1.23,1.856-1.767,2.869-1.914c0.997-0.159,2.073,0.166,2.912,0.887c0.781,0.67,1.274,1.642,1.332,2.577
	c0.046,0.978-0.382,1.991-1.245,2.996l-0.838,0.975l4.378,3.762l-0.965,1.125L24.941,40.865z M31.284,42.796
	c1.173-1.364,1.182-2.711,0.042-3.69c-0.539-0.463-1.199-0.666-1.796-0.579c-0.637,0.104-1.184,0.468-1.879,1.278l-0.708,0.824
	l3.567,3.066L31.284,42.796z M37.864,36.111c-2.365-2.763-1.981-7.177,0.841-9.594c2.837-2.43,7.2-2.106,9.63,0.731
	c2.456,2.868,2.079,7.198-0.817,9.68c-1.427,1.221-3.449,1.808-5.379,1.56C40.487,38.263,39.022,37.462,37.864,36.111z
	 M46.631,35.864c2.282-1.955,2.546-5.354,0.579-7.652c-1.954-2.282-5.353-2.573-7.62-0.632c-2.237,1.916-2.502,5.344-0.6,7.566
	c1.055,1.231,2.364,1.879,3.887,1.955C44.26,37.167,45.641,36.713,46.631,35.864z M50.063,18.255l1.244-0.806l7.168,11.06
	l-1.243,0.807L50.063,18.255z M57.839,12.779l13.892,5.32L67.34,8.871l1.338-0.638l5.921,12.441l-13.884-5.301l4.365,9.174
	l-1.338,0.637L57.839,12.779z M78.246,6.392L75.2,7.32l-0.397-1.305l7.527-2.294l0.397,1.305l-3.064,0.934l3.448,11.309L81.693,17.7
	L78.246,6.392z M88.312,2.368l1.454-0.277l2.209,11.608l3.552-0.675l0.255,1.339l-5.008,0.952L88.312,2.368z M99.453,0.608
	l6.802-0.51l0.104,1.36l-5.325,0.399l0.295,3.923l5.186-0.389l0.103,1.36l-5.186,0.389l0.387,5.146l5.323-0.4l0.102,1.361
	l-6.803,0.51L99.453,0.608z M113.116,9.693c0.294,1.658,1.185,2.473,2.567,2.542c1.46,0.072,2.701-1.016,2.772-2.457
	c0.039-0.81-0.286-1.439-0.994-1.93c-0.478-0.34-0.478-0.34-2.273-1.259c-1.854-0.942-2.577-1.928-2.507-3.369
	c0.096-1.935,1.747-3.318,3.86-3.214c1.479,0.073,2.571,0.82,3.294,2.22l-1.201,0.693c-0.619-1.099-1.174-1.483-2.2-1.533
	c-1.226-0.06-2.215,0.762-2.272,1.927c-0.028,0.572,0.225,1.06,0.759,1.462c0.459,0.34,0.459,0.34,2.217,1.218
	c2.067,1.032,2.885,2.121,2.802,3.779c-0.11,2.271-2.034,3.958-4.384,3.842c-2.072-0.102-3.492-1.419-3.881-3.595L113.116,9.693z
	 M126.391,10.862c0.078,1.681,0.854,2.604,2.216,2.851c1.438,0.26,2.809-0.657,3.065-2.076c0.145-0.797-0.097-1.463-0.735-2.04
	c-0.43-0.399-0.43-0.399-2.089-1.543c-1.716-1.174-2.306-2.245-2.049-3.663c0.346-1.906,2.161-3.063,4.241-2.686
	c1.458,0.264,2.443,1.145,2.978,2.627l-1.279,0.531c-0.472-1.17-0.972-1.622-1.983-1.805c-1.205-0.219-2.293,0.469-2.501,1.616
	c-0.103,0.564,0.086,1.08,0.563,1.547c0.411,0.396,0.411,0.396,2.039,1.493c1.915,1.291,2.583,2.476,2.287,4.109
	c-0.404,2.235-2.528,3.658-4.842,3.239c-2.041-0.369-3.278-1.858-3.381-4.065L126.391,10.862z M154.647,22.26
	c-1.548,0.305-2.848,0.179-4.156-0.38c-3.416-1.46-5.057-5.514-3.604-8.912c1.483-3.47,5.549-5.084,9.037-3.593
	c1.345,0.575,2.213,1.355,3.066,2.729l-0.715,1.672c-0.706-1.613-1.623-2.585-2.986-3.168c-2.671-1.141-5.866,0.2-7.047,2.962
	c-1.157,2.707,0.104,5.89,2.793,7.039c1.344,0.575,2.699,0.574,4.327-0.02L154.647,22.26z M161.774,19.575
	c1.978-3.053,6.321-3.938,9.441-1.917c3.136,2.033,4.064,6.31,2.031,9.446c-2.054,3.169-6.315,4.037-9.517,1.961
	c-1.577-1.021-2.715-2.795-3.024-4.716C160.454,22.702,160.806,21.068,161.774,19.575z M164.498,27.915
	c2.523,1.635,5.859,0.922,7.506-1.617c1.634-2.523,0.948-5.865-1.558-7.489c-2.472-1.602-5.836-0.884-7.428,1.572
	c-0.882,1.361-1.132,2.802-0.772,4.283C162.576,26.009,163.403,27.205,164.498,27.915z M182.56,26.311l1.588,1.428
	c1.115,1.005,1.659,1.761,1.873,2.646c0.266,1.064-0.076,2.271-0.909,3.197c-1.336,1.484-3.257,1.669-4.875,0.452l-0.827,7.182
	l-1.337-1.204l0.909-6.948l-0.28-0.251l-3.861,4.29l-1.102-0.992L182.56,26.311z M180.266,32.464
	c1.381,1.243,2.742,1.298,3.773,0.152c0.541-0.603,0.754-1.37,0.55-2.059c-0.155-0.539-0.503-1.038-1.194-1.659l-0.646-0.582
	l-3.174,3.526L180.266,32.464z M192.784,36.205l1.565,1.806c1.062,1.224,1.476,2.094,1.473,3.116
	c0.013,1.009-0.466,2.025-1.302,2.75c-0.777,0.673-1.81,1.019-2.742,0.938c-0.974-0.097-1.913-0.668-2.779-1.669l-0.843-0.97
	l-4.358,3.779l-0.97-1.12L192.784,36.205z M189.948,42.192c1.178,1.358,2.508,1.565,3.642,0.582
	c0.538-0.466,0.834-1.088,0.835-1.691c-0.01-0.645-0.289-1.239-0.988-2.045l-0.711-0.821l-3.554,3.08L189.948,42.192z
	 M205.263,66.344c1.41-0.623,3.009,0.011,3.64,1.44c0.592,1.338-0.053,2.962-1.409,3.562c-1.393,0.615-3.009-0.011-3.615-1.386
	C203.271,68.585,203.906,66.943,205.263,66.344z M219.491,97.157l-0.375-3.16l1.354-0.161l0.927,7.812l-1.354,0.161l-0.377-3.18
	l-11.737,1.393l-0.175-1.473L219.491,97.157z M221.771,108.094l-0.027,1.482l-5.374-0.102l-0.128,6.717l5.374,0.103l-0.028,1.482
	l-13.18-0.25l0.029-1.482l6.441,0.122l0.128-6.718l-6.442-0.122l0.028-1.482L221.771,108.094z M220.761,125.606l-1.083,6.734
	l-1.348-0.217l0.849-5.27l-3.885-0.626l-0.826,5.134l-1.346-0.217l0.825-5.134l-5.094-0.819l-0.848,5.27l-1.347-0.217l1.084-6.733
	L220.761,125.606z M215.543,147.392l-0.496,1.396l-12.423-4.418l0.497-1.396L215.543,147.392z M212.688,156.487l-14.267,4.207
	l9.09,4.666l-0.676,1.318l-12.255-6.289l14.249-4.217l-9.04-4.639l0.679-1.318L212.688,156.487z M202.82,174.045l-14.791,1.567
	l8.101,6.228l-0.903,1.175l-10.921-8.395l14.775-1.58l-8.055-6.191l0.903-1.176L202.82,174.045z M185.727,183.85
	c2.433,2.706,2.154,7.129-0.61,9.614c-2.778,2.498-7.149,2.279-9.647-0.5c-2.524-2.809-2.252-7.148,0.586-9.699
	c1.397-1.256,3.406-1.891,5.34-1.689C183.052,181.761,184.536,182.526,185.727,183.85z M176.965,184.307
	c-2.233,2.009-2.416,5.416-0.394,7.666c2.009,2.234,5.413,2.444,7.635,0.448c2.19-1.969,2.373-5.403,0.418-7.58
	c-1.085-1.206-2.41-1.822-3.934-1.861C179.306,182.947,177.936,183.435,176.965,184.307z M175.534,201.056l-1.361,0.881l-8.596-6.4
	l2.322,10.463l-1.345,0.87l-3.089-14.63L175.534,201.056z M158.048,211.878l-11.229-9.999l1.468-0.688l2.998,2.722l5.102-2.39
	l-0.151-4.054l1.45-0.679L158.048,211.878z M152.383,204.905l4.225,3.849l-0.197-5.734L152.383,204.905z M145.312,214.809
	l3.026-0.981l0.421,1.297l-7.482,2.426l-0.42-1.297l3.045-0.987l-3.645-11.241l1.409-0.458L145.312,214.809z M135.396,218.978
	l-1.447,0.318l-2.826-12.873l1.447-0.317L135.396,218.978z M126.393,214.265c0.298,3.625-2.6,6.977-6.303,7.28
	c-3.723,0.307-7.067-2.512-7.373-6.234c-0.31-3.762,2.534-7.049,6.335-7.362c1.871-0.153,3.853,0.557,5.271,1.888
	C125.528,210.985,126.247,212.493,126.393,214.265z M119.146,209.328c-2.994,0.246-5.199,2.848-4.951,5.86
	c0.246,2.994,2.829,5.222,5.803,4.977c2.935-0.241,5.158-2.863,4.919-5.778c-0.134-1.615-0.814-2.907-2.004-3.86
	C121.83,209.663,120.445,209.222,119.146,209.328z M105.517,222.278l-9.131-11.743l-1.021,10.168l-1.476-0.148l1.376-13.708
	l9.133,11.725l1.016-10.109l1.475,0.148L105.517,222.278z M77.65,216.641l-1.407-0.467l3.722-11.219l-3.434-1.139l0.429-1.295
	l4.84,1.605L77.65,216.641z M62.63,211.374l0.631-15.021l1.462,0.701l-0.209,4.043l5.079,2.438l3.04-2.684l1.444,0.692
	L62.63,211.374z M64.44,202.574l-0.305,5.707l4.313-3.782L64.44,202.574z M52.108,204.918l-1.986-1.333
	c-1.148-0.771-1.759-1.491-2.014-2.353c-0.299-0.938-0.093-2.061,0.514-2.963c0.628-0.935,1.386-1.355,2.504-1.39
	c-1.043-1.248-1.12-2.799-0.206-4.16c0.628-0.936,1.583-1.508,2.675-1.608c1.036-0.09,1.89,0.198,3.137,1.035l2.724,1.828
	L52.108,204.918z M53.197,198.651c-0.804-0.54-1.248-0.695-1.829-0.609c-0.597,0.076-1.152,0.44-1.538,1.016
	c-0.396,0.59-0.536,1.258-0.395,1.829c0.146,0.526,0.496,0.927,1.251,1.435l0.951,0.639l2.478-3.691L53.197,198.651z M56.07,193.345
	c-1.002-0.672-1.537-0.865-2.239-0.813c-0.686,0.063-1.322,0.445-1.719,1.036c-0.452,0.672-0.521,1.555-0.172,2.24
	c0.272,0.518,0.752,1.006,1.638,1.602l1.232,0.826l2.653-3.955L56.07,193.345z M29.888,187.442l5.967-13.802l1.113,1.178
	l-1.642,3.702l3.869,4.094l3.802-1.418l1.101,1.164L29.888,187.442z M34.729,179.873l-2.328,5.221l5.384-1.988L34.729,179.873z
	 M23.125,176.31l1.887,2.562l-1.1,0.809l-4.663-6.336l1.099-0.809l1.898,2.579l9.521-7.007l0.879,1.194L23.125,176.31z
	 M12.26,161.741l-0.675-1.475l7.579-7.575l-10.688,0.779l-0.666-1.457l14.923-0.933L12.26,161.741z M5.848,146.317l-0.466-1.408
	l12.524-4.139l0.465,1.408L5.848,146.317z M7.575,124.048c1.456-0.277,2.444-0.266,3.41,0.053c2.103,0.686,3.733,2.587,4.168,4.858
	c0.696,3.649-1.742,7.213-5.41,7.913c-3.708,0.709-7.295-1.745-8.006-5.472c-0.274-1.437-0.079-2.942,0.562-4.212
	c0.272-0.575,0.57-1.015,1.209-1.781l1.175,0.883c-1.443,1.604-1.93,3.064-1.592,4.831c0.562,2.95,3.423,4.859,6.393,4.292
	c2.872-0.549,4.844-3.399,4.307-6.214c-0.309-1.611-1.514-3.071-2.985-3.615c-0.587-0.229-1.117-0.269-1.925-0.176l0.734,3.843
	l-1.34,0.256l-1.03-5.396L7.575,124.048z M0.241,117.933L0,111.12l1.363-0.048l0.188,5.332l3.93-0.139l-0.184-5.193l1.363-0.048
	l0.183,5.194l5.155-0.182l-0.188-5.333l1.362-0.048l0.24,6.813L0.241,117.933z M1.78,102.114l-0.294,3.168l-1.357-0.125l0.727-7.832
	l1.357,0.125l-0.295,3.188l11.768,1.09l-0.138,1.476L1.78,102.114z"/>
</defs>
<g id="stamp__seal">
  <use xlink:href="#hit" id="stamp-hit" fill="transparent"/>
  <use xlink:href="#border" id="stamp-border"/>
	<use xlink:href="#text" id="stamp-text" x="26.614" y="26.355"/>
	<use xlink:href="#circle" x="64.5" y="64.5"/>
</g>
<g id="stamp__logo" transform="translate(64.5,64.5)">
<g id="rider" transform="translate(22,10)">
<use xlink:href="#trike" x="23.039" y="78.986"/>
<use xlink:href="#bear" y="23.696"/>
<use xlink:href="#bear-leg" x="35.745" y="50.068">
<animateMotion id="move" dur="1" repeatCount="indefinite">
	<mpath xlink:href="#pedal-motion" />
</animateMotion>
</use>
<use xlink:href="#tophat" x="39.172"/>
</g>
</g>
</svg>
