<svg enable-background="new 69.5 69.5 160 160" height="160" viewBox="69.5 69.5 160 160" width="160" xmlns="http://www.w3.org/2000/svg"><path d="m185.784 220.791c3.765-1.92 7.36-4.125 10.753-6.596l.834-2.674h1.002l.041.012-.518 1.654c2.574-1.959 5.022-4.074 7.34-6.326l-8.246-26.248 9.715-31.113h.018v3.297l-8.684 27.816 8.004 25.479c2.282-2.281 4.411-4.713 6.406-7.256l-5.369-17.09v.025l-.357-1.141.357-1.145v.023l9.365-29.992h1.002l.041.014-9.709 31.1 5.418 17.252c2.049-2.693 3.924-5.525 5.623-8.475l-2.756-8.777 9.715-31.112h.018v3.298l-8.684 27.814 2.387 7.6c6.363-11.479 10-24.68 10-38.731 0-14.025-3.621-27.2-9.961-38.662l-2.426 7.774 8.684 27.644v3.245h-.029l-9.703-30.888 2.797-8.956c-1.702-2.956-3.577-5.8-5.633-8.503l-5.449 17.459 9.701 30.888h-1.047l-9.354-29.773v.025l-.356-1.14.356-1.145v.024l5.399-17.293c-2-2.553-4.137-4.993-6.428-7.282l-8.014 25.675 8.684 27.643v3.244h-.029l-9.703-30.887 8.257-26.444c-2.322-2.259-4.777-4.381-7.358-6.346l.52 1.656h-1.047l-.838-2.666c-3.396-2.473-6.994-4.677-10.767-6.599l1.894 6.021v3.244h-.029l-3.111-9.904c-3.062-1.492-6.238-2.78-9.504-3.878l4.33 13.782h-1.049l-4.455-14.181c-3.068-.979-6.221-1.768-9.436-2.374l4.18 13.311v3.244h-.029l-5.264-16.752c-2.822-.49-5.69-.836-8.606-1.022l5.584 17.774h-1.048l-5.609-17.855c-1.359-.067-2.727-.103-4.102-.103-1.541 0-3.066.054-4.586.14l4.586 14.595v3.244h-.029l-5.58-17.762c-2.701.187-5.365.507-7.985.956l5.28 16.806h-1.049l-5.224-16.629c-2.747.507-5.445 1.149-8.087 1.929l3.6 11.456v3.244h-.029l-4.532-14.427c-2.534.782-5.017 1.687-7.437 2.707l3.682 11.72h-1.047l-3.555-11.308c-2.574 1.125-5.076 2.386-7.502 3.766l1.344 4.278v3.244h-.029l-2.201-7.012c-2.371 1.39-4.666 2.891-6.871 4.508l.785 2.504h-1.047l-.592-1.88c-3.752 2.829-7.24 5.987-10.438 9.422l-7.364 23.592 8.684 27.643v3.244h-.029l-9.703-30.887 6.812-21.812c-6.123 6.979-11.046 15.029-14.46 23.84l9.066 28.859h-1.049l-8.599-27.371c-1.778 4.882-3.098 9.982-3.899 15.254l2.787 8.873v3.244h-.029l-3.061-9.739c-.391 3.2-.615 6.453-.615 9.761 0 3.324.227 6.596.621 9.814l3.065-9.814h.018v3.297l-2.779 8.9c.809 5.281 2.133 10.393 3.92 15.281l8.581-27.479h1.002l.041.013-9.039 28.952c3.405 8.76 8.304 16.766 14.389 23.715l-6.773-21.566 9.714-31.114h.018v3.297l-8.684 27.816 7.337 23.355c3.206 3.447 6.706 6.617 10.475 9.455l.595-1.902h1.002l.041.012-.787 2.516c2.21 1.619 4.507 3.123 6.88 4.514l2.198-7.041h.018v3.297l-1.327 4.254c2.431 1.383 4.938 2.646 7.521 3.771l3.529-11.303h1.002l.041.014-3.652 11.699c2.422 1.021 4.905 1.922 7.441 2.705l4.502-14.418h.018v3.297l-3.559 11.395c2.645.777 5.344 1.42 8.092 1.926l5.189-16.617h1.002l.041.016-5.238 16.779c2.621.447 5.285.766 7.988.951l5.541-17.746h.016v3.297l-4.534 14.527c1.501.084 3.013.135 4.534.135 1.389 0 2.77-.035 4.143-.105l5.58-17.871h1.002l.041.012-5.55 17.779c2.914-.189 5.785-.535 8.606-1.027l5.234-16.764h.018v3.297l-4.143 13.268c3.217-.605 6.366-1.396 9.436-2.379l4.43-14.186h1.002l.041.012-4.302 13.777c3.263-1.1 6.44-2.389 9.499-3.881l3.094-9.908h.018v3.297zm40.087-74.535 1.018 3.244h-1.018zm0 3.265h.984l.041.014-1.025 3.284zm-19.074-3.265 1.018 3.244h-1.018zm0 3.265h.984l.041.014-1.025 3.284zm-133.52-3.287 1.02 3.244h-1.02zm0 6.563v-3.297h.984l.041.013zm114.446 62.021v-3.297h.984l.041.012zm0-3.318v-3.244l1.02 3.244zm.982-30.887 9.701 30.887h-1.047l-9.354-29.773v.025l-.356-1.139.356-1.146v.025l9.366-29.992h1.002l.041.013zm.002-31.113.041.013-1.025 3.284v-3.297zm-.984-.021v-3.244l1.02 3.244zm0-65.264 1.02 3.244h-1.02zm0 3.264h.984l.041.014-1.025 3.283zm.283 29.969v.023l9.365-29.993h1.002l.041.014-9.709 31.101 9.701 30.887h-1.047l-9.354-29.772v.024l-.356-1.139zm-.375-29.969h.018v3.297l-8.684 27.816 8.684 27.643v3.244h-.028l-9.703-30.887zm-18.983-3.264 1.02 3.244h-1.02zm0 3.264h.983l.041.014-1.024 3.283zm.284 29.969v.023l9.365-29.993h1.002l.041.014-9.709 31.101 9.703 30.887h-1.049l-9.354-29.772v.024l-.357-1.139zm.701 32.052.041.013-1.025 3.284v-3.297zm-.985-.021v-3.244l1.02 3.244zm-.091-62h.019v3.297l-8.685 27.816 8.685 27.643v3.244h-.029l-9.703-30.887zm-18.983-3.264 1.018 3.244h-1.018zm0 3.264h.984l.041.014-1.025 3.283zm.283 29.969v.023l9.366-29.993h1.002l.041.014-9.709 31.101 9.701 30.887h-1.048l-9.354-29.772v.024l-.356-1.139zm.702 32.052.041.013-1.024 3.284v-3.297zm-.985-.021v-3.244l1.018 3.244zm-.092-61.979h.018v3.297l-8.684 27.815 8.684 27.644v3.244h-.029l-9.703-30.888zm-18.982-3.266 1.02 3.244h-1.02zm0 3.266h.984l.041.013-1.025 3.284zm.283 29.969v.024l9.365-29.993h1.002l.041.013-9.709 31.102 9.704 30.886h-1.049l-9.354-29.773v.025l-.357-1.14zm.701 32.052.041.014-1.025 3.282v-3.297zm-.984-.021v-3.244l1.02 3.244zm-.092-62h.018v3.297l-8.684 27.815 8.684 27.644v3.244h-.029l-9.703-30.888zm-18.982-3.266 1.018 3.244h-1.018zm0 3.266h.984l.041.013-1.025 3.284zm.283 29.969v.024l9.365-29.993h1.002l.041.013-9.709 31.102 9.701 30.886h-1.047l-9.354-29.773v.025l-.357-1.14zm.701 32.052.041.014-1.025 3.284v-3.298zm-.984-.021v-3.244l1.018 3.244zm-.092-62.021h.018v3.297l-8.684 27.816 8.684 27.643v3.244h-.029l-9.703-30.887zm-18.699 29.969v.023l9.365-29.992h1.002l.041.014-9.709 31.101 9.701 30.887h-1.047l-9.354-29.772v.024l-.357-1.139zm.701 32.052.041.013-1.025 3.284v-3.297zm-.984-.021v-3.244l1.019 3.244zm9.636 62.021-9.354-29.773v.025l-.357-1.139.357-1.146v.025l9.366-29.992h1.002l.041.013-9.709 31.101 9.701 30.887h-1.047zm9.364 0h-.029l-9.703-30.887 9.714-31.113h.018v3.297l-8.684 27.816 8.684 27.643zm.074 3.338v-3.297h.984l.041.014zm0-3.317v-3.246l1.018 3.246zm9.636 0-9.354-29.775v.025l-.357-1.139.357-1.145v.023l9.365-29.993h1.002l.041.014-9.709 31.101 9.701 30.889zm9.364 0h-.029l-9.703-30.889 9.715-31.113h.018v3.297l-8.684 27.816 8.684 27.643zm.074 3.317v-3.297h.984l.041.014zm0-3.317v-3.246l1.02 3.246zm9.637 0-9.354-29.775v.025l-.357-1.139.357-1.145v.023l9.365-29.993h1.002l.041.014-9.709 31.101 9.703 30.889zm9.363 0h-.029l-9.703-30.889 9.715-31.113h.017v3.297l-8.684 27.816 8.684 27.643zm.074 3.297v-3.297h.984l.041.012zm0-3.318v-3.244l1.018 3.244zm9.637 0-9.354-29.773v.025l-.357-1.139.357-1.146v.025l9.366-29.992h1.002l.041.013-9.709 31.101 9.702 30.887h-1.048zm9.363 0h-.029l-9.703-30.887 9.715-31.113h.019v3.297l-8.685 27.816 8.685 27.643zm.074 3.318v-3.297h.983l.041.012zm0-3.318v-3.244l1.02 3.244zm9.637 0-9.354-29.773v.025l-.357-1.139.357-1.146v.025l9.365-29.992h1.002l.041.013-9.709 31.101 9.703 30.887h-1.048zm9.334 0-9.703-30.887 9.715-31.113h.018v3.297l-8.684 27.816 8.684 27.643v3.244z" fill="#37393a"/><path d="m187.242 128.551-24.973-13.7-22.258.146-1.127-.615-4.973-.445-4.182 4.627-6.424 18.413s5.428 1.851 7.709 2.993 17.555 3.428 17.555 3.428l39.958-1 3.425-6.565zm-26.681-28.539-7.707-15.416-7.28 2.998 3.709 16.697z" fill="#8e483f"/><path d="m157.051 101.405 9.398-3.588-.018-.028c.825-.556.223-4.3-1.404-8.56-1.631-4.267-3.68-7.466-4.666-7.328l-.023-.061-8.982 3.434c2.299 2.515 4.283 7.709 5.047 11.607.644 3.285.648 3.061.648 4.524zm-10.063 7.47c.65-.252.783-1.686.471-3.803l4.73-1.811c.348-3.938-2.306-10.177-4.109-13.951-.734-1.518-1.438-1.972-1.777-2.104l-4.904 1.878c-1.234-1.92-2.338-2.968-3.012-2.712-1.332.509-.49 5.959 1.887 12.178 2.376 6.211 5.376 10.834 6.714 10.325zm-22.672 28.433c9.061-10.186 9.588-22.708 9.596-22.839v-.533c-3.611-.461-6.396-1.143-8.311-1.732.117-.349.197-.726.197-1.117 0-1.952-1.586-3.539-3.529-3.539-1.951 0-3.539 1.587-3.539 3.539l.031.251-9.246.731-3.854 2.354-10.398.749s2.559 8.991 3.506 9.932c1.119 1.109 5.094 4.632 9.748 6.445 1.186.461 9.582 3.498 15.994 5.887zm79.42 14.79c0-22.17-18.219-40.467-40.404-40.467-.439 0-.873.014-1.297.025l.01.027c-7.283-.139-9.152 2.781-19.518 2.781-1.27 0-2.484-.032-3.643-.085-.057 1.529-.477 8.063-3.664 15.214 1.787 1.855 9.625 12.445 22.223 4.871.406-.278.812-.586 1.223-.902 12.291-11.912 27.863-5.093 27.863-5.093l2.615 7.189-7.332 2.681c-8.937-6.211-17.703-.248-17.703-.248s-13.426 8.907-27.273-.344c-.203-.069-.453-.21-.77-.438-2.65-1.895-4.566-.668-5.254-.071-.484.673-1.012 1.327-1.555 1.991 1.18.453 2.064.811 2.469 1.003 4.113 1.93 4.842 5.646 4.842 5.646s1.221 4.22-.898 7.546c-3.189 4.83-11.732 11.176-11.732 11.176l-.023.039c-1.086.6-1.826 1.744-1.826 3.078 0 1.947 1.582 3.529 3.533 3.529l.041-.004 1.004 1.57c-2.389 1.629-4.551 3.611-6.414 5.932l4.271 3.434c4.605-5.725 11.434-9.004 18.732-9.004 2.209 0 4.375.309 6.438.883-.193.17-.371.336-.516.484-.568.592-1.199 1.369-1.848 2.229-1.393-.299-2.834-.463-4.312-.463-11.264 0-20.424 9.158-20.424 20.424s9.16 20.428 20.424 20.428c11.268 0 20.436-9.162 20.436-20.428 0-1.516-.17-2.988-.486-4.418l.535.012c4.097 0 8.047-.611 11.781-1.762.362 1.811.562 3.641.562 5.471v.98c-4.506 1.033-7.875 5.051-7.875 9.877 0 5.602 4.537 10.131 10.146 10.131 5.596 0 10.129-4.529 10.129-10.131 0-4.477-2.897-8.268-6.916-9.607l.002-1.25c0-2.51-.299-5.012-.873-7.465 1.358-.643 2.685-1.342 3.959-2.121.526.17 1.144.322 1.888.477 6.317 1.283 9.213-3.465 9.213-3.465-2.103-.301-3.72-1.207-4.685-1.875 7.922-7.351 12.902-17.843 12.902-29.487zm-60.48 15.593c-4.123 0-8.121.863-11.789 2.463l-1.449-2.268c6.953-2.996 13.166-3.086 13.906-3.086 2.766 0 5.553.412 8.266 1.197.17 1.002.172 2.029-.016 3.066-2.844-.893-5.84-1.372-8.918-1.372zm-.238 44.508c-8.525 0-15.453-6.939-15.453-15.469 0-8.523 6.928-15.459 15.453-15.459.406 0 .799.033 1.195.057-.816 1.295-1.498 2.412-1.879 3.053-.508.619-.83 1.395-.83 2.252 0 .521.117 1.008.33 1.457l-.07.004 6.488 10.266-5.186 3.375 2.992 4.592 12.35-8.033c-.787 7.796-7.39 13.905-15.39 13.905zm38.142-4.053.111-5.777c1.418.996 2.358 2.652 2.358 4.523 0 3.045-2.483 5.521-5.517 5.521-3.051 0-5.528-2.479-5.528-5.521 0-2.219 1.317-4.125 3.207-5.004-.033 2.08-.072 4.234-.108 6.152z" fill="#1e1f20"/></svg>