<svg enable-background="new 70 69.5 160 160" height="160" viewBox="70 69.5 160 160" width="160" xmlns="http://www.w3.org/2000/svg"><path d="m70 149.5c0 44.184 35.818 80 80 80v-160c-44.182 0-80 35.817-80 80z" fill="#8895a9"/><path d="m149.167 216.991v-2.658h-9.001v1.96c-.558-.084-1.114-.17-1.667-.266v-1.694h-7.348c-1.69-.492-3.361-1.05-4.994-1.666h1.676v-9h-8.999v5.724c-.521-.272-1.067-.568-1.667-.904v-4.818h-7.442c-1.133-.841-2.216-1.695-3.225-2.546v-6.711c.537.219 1.094.378 1.667.475v7.115h9v-7h1.667v7h8.999v-7h1.667v7h8.999v-7h1.667v7h9.001v-7h.333v21.995zm-9.001-4.324h9.001v-9h-9.001zm-10.666 0h8.999v-9h-8.999zm-31.123-19.667c-.816-.969-1.651-2.023-2.544-3.213v-7.454h-4.834c-.306-.552-.602-1.104-.896-1.667h5.73v-8.999h-9v1.683c-.621-1.647-1.179-3.317-1.666-4.988v-7.359h-1.695c-.095-.553-.181-1.109-.265-1.667h1.96v-9.001h-2.658l-.009-.838.009-.828h2.658v-9h-1.96c.084-.558.17-1.115.265-1.667h1.695v-7.348c.486-1.669 1.044-3.339 1.666-4.988v1.669h9v-9h-5.723c.263-.503.554-1.043.901-1.667h4.821v-7.441c.859-1.159 1.694-2.217 2.544-3.225h5.855c-.551.486-1.037 1.047-1.439 1.667h-5.292v9h4v1.667h-4v9h4v1.667h-4v9h4v1.667h-4v9h4v1.666h-4v9.001h4v1.667h-4v8.999h4v1.667h-4v8.999h4v1.667h-4v9h5.293c.402.62.889 1.183 1.439 1.667h-5.855zm-11.544-23h9v-8.999h-9zm0-10.666h9v-9.001h-9zm0-10.667h9v-9h-9zm0-10.667h9v-9h-9zm19.667-40.123c1.002-.845 2.06-1.68 3.225-2.544h7.442v-4.821c.619-.344 1.159-.636 1.667-.901v5.722h8.999v-9h-1.669c1.652-.624 3.321-1.182 4.987-1.667h7.348v-1.694c.553-.094 1.109-.179 1.667-.258v1.953h9.001v-2.658l.333-.003v21.994h-.333v-7h-9.001v7h-1.667v-7h-8.999v7h-1.667v-7h-8.999v7h-1.667v-7h-9v7.115c-.573.097-1.13.256-1.667.475zm33.666-2.544h9.001v-9h-9.001zm-10.666 0h8.999v-9h-8.999z" fill="#9ba8bc"/><path d="m230 149.5c0-44.183-35.816-80-80-80v160c44.184 0 80-35.816 80-80z" fill="#98be95"/><path d="m109.5 196.5h40.5v-94h-40.5c-5.238 0-9.5 4.262-9.5 9.5v75c0 5.238 4.262 9.5 9.5 9.5z" fill="#8895a9"/><path d="m190.5 105.5h-40.5v88h40.5c3.584 0 6.5-2.916 6.5-6.5v-75c0-3.584-2.916-6.5-6.5-6.5z" fill="#f9f5ee"/><path d="m190.5 104.5h-40.5v2h40.5c3.032 0 5.5 2.468 5.5 5.5v10.5h-46v2h46v62.5c0 3.032-2.468 5.5-5.5 5.5h-40.5v2h40.5c4.125 0 7.5-3.375 7.5-7.5v-75c0-4.125-3.375-7.5-7.5-7.5z" fill="#657f50"/><path d="m150 124.5v25h46v-25z" fill="#98be95"/><path d="m196 122.5v-10.5c0-3.032-2.468-5.5-5.5-5.5h-40.5v16z" fill="#6e9056"/><path d="m152 151.5h20v20h-20zm22 0h20v20h-20z" fill="#b5d3b2"/><path d="m152 187.5v-2h20v2zm20-8v-2h-20v2zm0 4v-2h-20v2zm22-10h-20v2h20zm-22 2v-2h-20v2zm22 10h-20v2h20zm0-4h-20v2h20zm0-4h-20v2h20z" fill="#6e9056"/><path d="m104 112v10.5h46v2h-46v23h46v2h-46v37.5c0 3.032 2.468 5.5 5.5 5.5h40.5v2h-40.5c-4.125 0-7.5-3.375-7.5-7.5v-75c0-4.125 3.375-7.5 7.5-7.5h40.5v2h-40.5c-3.032 0-5.5 2.468-5.5 5.5zm27 65.5v1h1v-1zm-1 0v1h-1v-1zm6 0v1h-1v-1zm-2 0v1h-1v-1zm4 0v1h-1v-1zm6 0v1h-1v-1zm2 0v1h-1v-1zm-4 0v1h-1v-1zm-2 0v1h-1v-1zm0 1h1v1h-1zm8-1v1h-1v-1zm-6 1h1v1h-1zm2 0h1v1h-1zm-6 0h1v1h-1zm-6 0h1v1h-1zm-2 0h1v1h-1zm-2 0h1v1h-1zm6 0h1v1h-1zm2 0h1v1h-1zm-6-4h1v1h-1zm6-1v1h-1v-1zm2 0v1h-1v-1zm-6 0v1h-1v-1zm8 0v1h-1v-1zm-6 0v1h-1v-1zm-4 0v1h-1v-1zm18 0v1h-1v-1zm-6 0v1h-1v-1zm4 0v1h-1v-1zm-2 0v1h-1v-1zm-2 1h1v1h-1zm-2 0h1v1h-1zm6 0h1v1h-1zm-2 0h1v1h-1zm-6 0h1v1h-1zm-10 0h1v1h-1zm18 4h1v1h-1zm-14-4h1v1h-1zm4 0h1v1h-1zm-2 0h1v1h-1zm-2 8h1v1h-1zm2 3v1h-1v-1zm-2 0v1h-1v-1zm4 0v1h-1v-1zm-6 0v1h-1v-1zm12 0v1h-1v-1zm-14 1h1v1h-1zm16-1v1h-1v-1zm-4 0v1h-1v-1zm-2 0v1h-1v-1zm0 1h1v1h-1zm6 0h1v1h-1zm-2 0h1v1h-1zm4 0h1v1h-1zm-16 0h1v1h-1zm10 0h1v1h-1zm-6 0h1v1h-1zm-2 0h1v1h-1zm14-1v1h-1v-1zm-18-3h1v1h-1zm2-1v1h-1v-1zm8 0v1h-1v-1zm-4 0v1h-1v-1zm-2 0v1h-1v-1zm4 0v1h-1v-1zm8 0v1h-1v-1zm4 4v1h-1v-1zm-2-4v1h-1v-1zm-4 0v1h-1v-1zm-2 0v1h-1v-1zm0 1h1v1h-1zm2 0h1v1h-1zm2 0h1v1h-1zm2 0h1v1h-1zm-8 0h1v1h-1zm-8 0h1v1h-1zm18-1v1h-1v-1zm-14 1h1v1h-1zm2 0h1v1h-1zm0 4h1v1h-1zm-22-9v1h-1v-1zm2 0v1h-1v-1zm-6 0v1h-1v-1zm8 0v1h-1v-1zm-6 0v1h-1v-1zm-4 0v1h-1v-1zm18 0v1h-1v-1zm-2 1h1v1h-1zm-2-1v1h-1v-1zm-2 0v1h-1v-1zm4 0v1h-1v-1zm-6 1h1v1h-1zm2 0h1v1h-1zm2 0h1v1h-1zm-6 0h1v1h-1zm-8 0h1v1h-1zm6 0h1v1h-1zm-4 0h1v1h-1zm-4 0h1v1h-1zm6 0h1v1h-1zm12-4h1v1h-1zm-6-1v1h-1v-1zm-2 0v1h-1v-1zm-6 0v1h-1v-1zm2 0v1h-1v-1zm10 1h1v1h-1zm-2-1v1h-1v-1zm6 0v1h-1v-1zm0-22h-20v20h20zm-2 18h-16v-16h16zm0 4v1h-1v-1zm-2 0v1h-1v-1zm-8 0v1h-1v-1zm-6 0v1h-1v-1zm10 1h1v1h-1zm-4 0h1v1h-1zm34-23h-20v20h20zm-2 18h-16v-16h16zm-30 5h1v1h-1zm-10 0h1v1h-1zm2 0h1v1h-1zm4 0h1v1h-1zm-2 0h1v1h-1zm10 0h1v1h-1zm-6 11v1h-1v-1zm-2 0v1h-1v-1zm4 0v1h-1v-1zm-6 0v1h-1v-1zm-2 0v1h-1v-1zm14 0v1h-1v-1zm2 0v1h-1v-1zm-18 1h1v1h-1zm12-1v1h-1v-1zm8 0v1h-1v-1zm-6 0v1h-1v-1zm2 1h1v1h-1zm-4 0h1v1h-1zm-10 0h1v1h-1zm16 0h1v1h-1zm-4 0h1v1h-1zm-4 0h1v1h-1zm-6 0h1v1h-1zm2 0h1v1h-1zm2 0h1v1h-1zm8-5v1h-1v-1zm-6 0v1h-1v-1zm-2 0v1h-1v-1zm10 1h1v1h-1zm-14-1v1h-1v-1zm16 0v1h-1v-1zm-18 0v1h-1v-1zm10 0v1h-1v-1zm6 0v1h-1v-1zm-4 0v1h-1v-1zm-8 0v1h-1v-1zm-6 1h1v1h-1zm12 0h1v1h-1zm-2 0h1v1h-1zm6 0h1v1h-1zm-2 0h1v1h-1zm-12 0h1v1h-1zm2 0h1v1h-1zm2 0h1v1h-1zm2 0h1v1h-1z" fill="#abb9c9"/><path d="m150 221.5c-39.701 0-72-32.299-72-72s32.299-72 72-72v-3c-41.355 0-75 33.645-75 75s33.645 75 75 75z" fill="#9ba8bc"/><path d="m149 223.493c-40.345-.537-73-33.523-73-73.993s32.655-73.457 73-73.993v1c-39.793.537-72 33.075-72 72.993s32.207 72.456 72 72.993z" fill="#8895a9"/><path d="m150 77.5c39.701 0 72 32.299 72 72s-32.299 72-72 72v3c41.355 0 75-33.645 75-75s-33.645-75-75-75z" fill="#b5d3b2"/><path d="m153.791 171.5h16.418l-.316-1.718c-.494-.652-1.699-.708-2.342-.869-.683-.173-.978-.397-1.559-.741-.359-.212-.788-.406-1.111-.695-.178-.16-.322-.349-.404-.584-.238-.68.143-1.554.498-2.129.201-.324.633-.048.887-.414.209-.305.26-.713.334-1.066.087-.385.443-1.872-.348-1.794.113-.009.047-1.669.033-1.817-.165-1.992-1.918-3.541-3.878-3.515h-.005c-1.959-.026-3.713 1.522-3.878 3.515-.013.148-.081 1.809.032 1.817-.791-.078-.432 1.409-.348 1.794.075.354.125.763.336 1.066.252.366.686.09.885.414.354.575.735 1.449.498 2.129-.08.235-.228.424-.403.584-.323.289-.753.483-1.111.695-.581.344-.876.568-1.558.741-.643.161-1.85.217-2.342.869zm22 0h16.418l-.316-1.718c-.494-.652-1.699-.708-2.342-.869-.683-.173-.978-.397-1.559-.741-.359-.212-.788-.406-1.111-.695-.178-.16-.322-.349-.404-.584-.238-.68.143-1.554.498-2.129.201-.324.633-.048.887-.414.209-.305.26-.713.334-1.066.087-.385.443-1.872-.348-1.794.113-.009.047-1.669.033-1.817-.165-1.992-1.918-3.541-3.878-3.515h-.005c-1.959-.026-3.713 1.522-3.878 3.515-.013.148-.081 1.809.032 1.817-.791-.078-.432 1.409-.348 1.794.075.354.125.763.336 1.066.252.366.686.09.885.414.354.575.735 1.449.498 2.129-.08.235-.228.424-.403.584-.323.289-.753.483-1.111.695-.581.344-.876.568-1.558.741-.643.161-1.85.217-2.342.869z" fill="#f9f5ee"/></svg>