<svg enable-background="new 69.5 69.5 160 160" height="160" viewBox="69.5 69.5 160 160" width="160" xmlns="http://www.w3.org/2000/svg"><circle cx="149.5" cy="149.5" fill="#edf4f7" r="80"/><path d="m189.5 181.5c-1.654 0-3-1.346-3-3v-8h-25.493c.084.613.235 1.219.454 1.805.089.232.176.439.271.643l.049.095.273.522.195.311.176.275c.135.192.275.379.424.559 1.609 1.952 3.982 3.072 6.51 3.072 1.025 0 1.861.834 1.861 1.859 0 1.022-.835 1.857-1.859 1.859h-29.723c-1.027-.002-1.861-.837-1.861-1.859 0-1.025.835-1.859 1.861-1.859 2.526 0 4.899-1.12 6.512-3.073.146-.179.288-.364.421-.558l.215-.338.113-.18c.149-.252.247-.441.34-.635.387-.814.635-1.646.752-2.498h-19.491v8c0 1.654-1.346 3-3 3h-26c-1.654 0-3-1.346-3-3v-38c0-1.654 1.346-3 3-3h14v-18c0-1.654 1.346-3 3-3h76c1.654 0 3 1.346 3 3v36h4c1.654 0 3 1.346 3 3v20c0 1.654-1.346 3-3 3z" fill="#d3e9f4"/><path d="m192.5 117.5h-76c-1.1 0-2 .9-2 2v48c0 1.1.9 2 2 2h32.568c-.037 2.217-.833 4.25-2.146 5.844-1.732 2.1-4.352 3.438-7.283 3.438-.477 0-.861.385-.861.859 0 .476.385.858.861.859h29.721c.478-.001.861-.385.861-.859 0-.476-.385-.859-.861-.859-2.932 0-5.551-1.338-7.282-3.438h.001c-1.312-1.594-2.11-3.627-2.146-5.844h32.567c1.1 0 2-.9 2-2v-48c0-1.1-.9-2-2-2z" fill="#fff"/><path d="m162.077 175.344c-1.345-1.631-2.153-3.722-2.153-6h-10.848c0 2.278-.809 4.369-2.153 6z" fill="#d4e9f4"/><path d="m194.5 167.5c0 1.1-.9 2-2 2h-76c-1.1 0-2-.9-2-2v-48c0-1.1.9-2 2-2h76c1.1 0 2 .9 2 2z" fill="#fff"/><path d="m118.5 121.5h72v44h-72z" fill="#98be95"/><path d="m201.5 178.5c0 1.1-.9 2-2 2h-10c-1.1 0-2-.9-2-2v-20c0-1.1.9-2 2-2h10c1.1 0 2 .9 2 2z" fill="#fff"/><path d="m189.5 158.5h10v18h-10z" fill="#8895a9"/><path d="m127.5 178.5c0 1.1-.9 2-2 2h-26c-1.1 0-2-.9-2-2v-38c0-1.1.9-2 2-2h26c1.1 0 2 .9 2 2z" fill="#fff"/><path d="m99.508 140.5h26v36h-26z" fill="#e2676c"/><g fill="#605350"><circle cx="112.5" cy="178.5" r="1"/><circle cx="194.5" cy="178.5" r="1"/></g></svg>