<svg enable-background="new 69.5 69.5 160 160" height="160" viewBox="69.5 69.5 160 160" width="160" xmlns="http://www.w3.org/2000/svg"><path d="m149.501 70.5c43.56 0 78.999 35.439 78.999 79 0 21.102-8.217 40.941-23.139 55.861-14.922 14.922-34.76 23.139-55.862 23.139-43.561 0-78.999-35.439-78.999-79.001 0-21.102 8.217-40.939 23.14-55.861 14.92-14.922 34.759-23.139 55.859-23.139zm-.002-1c-44.183-.001-79.999 35.816-79.999 79.999s35.816 80.001 79.999 80.001c44.185 0 80.001-35.816 80.001-80.001 0-44.183-35.816-80-80.001-79.999zm-61.036 71.716c-1.082-.182-1.782-1.182-1.6-2.275.172-1.024 1.188-1.739 2.229-1.564 1.066.18 1.782 1.183 1.605 2.235-.176 1.051-1.195 1.78-2.234 1.604zm2.904-23.391.857-1.468c.582-.993 1.071-1.473 1.762-1.702.676-.239 1.471-.15 2.147.246.632.369 1.102.986 1.261 1.632.155.679-.015 1.44-.488 2.253l-.461.789 3.541 2.069-.532.91zm4.679.54c.646-1.104.481-2.046-.439-2.585-.438-.255-.924-.312-1.329-.175-.432.153-.77.478-1.15 1.133l-.391.666 2.886 1.688zm3.809-5.556c-1.954-1.695-2.148-4.842-.416-6.837 1.741-2.008 4.844-2.237 6.851-.496 2.028 1.76 2.218 4.845.44 6.895-.876 1.009-2.236 1.634-3.619 1.662-1.185.013-2.299-.396-3.256-1.224zm6.141-1.096c1.399-1.613 1.229-4.031-.396-5.44-1.613-1.4-4.035-1.249-5.427.354-1.373 1.581-1.198 4.021.372 5.385.871.756 1.86 1.072 2.938.968.981-.1 1.906-.566 2.513-1.267zm.8-12.777.811-.675 5.993 7.202-.811.675zm5.187-4.605 10.179 2.874-3.701-6.252.906-.537 4.99 8.43-10.171-2.862 3.68 6.216-.907.537zm14.265-5.769-2.122.788-.337-.909 5.243-1.947.337.909-2.134.793 2.926 7.878-.989.366zm7.121-3.262 1.027-.235 1.887 8.188 2.506-.577.218.945-3.532.813zm7.997-1.514 4.826-.444.089.966-3.777.348.256 2.784 3.68-.338.089.965-3.679.338.335 3.651 3.776-.348.089.966-4.826.442zm9.829 6.36c.195 1.181.82 1.767 1.805 1.826 1.037.062 1.928-.7 1.99-1.725.033-.574-.191-1.023-.691-1.38-.338-.245-.338-.245-1.605-.912-1.311-.685-1.814-1.392-1.754-2.414.084-1.375 1.27-2.344 2.77-2.253 1.051.063 1.82.603 2.324 1.604l-.859.482c-.432-.786-.824-1.063-1.553-1.106-.869-.054-1.58.522-1.629 1.351-.025.406.15.756.525 1.045.324.245.324.245 1.564.884 1.461.749 2.033 1.529 1.963 2.707-.1 1.613-1.479 2.797-3.146 2.695-1.473-.09-2.471-1.036-2.729-2.586zm9.41 1.017c.004 1.197.529 1.876 1.49 2.092 1.014.229 2.016-.384 2.24-1.385.127-.562-.025-1.043-.463-1.473-.293-.296-.293-.296-1.439-1.158-1.184-.885-1.572-1.664-1.348-2.664.301-1.344 1.627-2.114 3.094-1.784 1.029.23 1.703.886 2.039 1.954l-.926.341c-.301-.846-.645-1.181-1.355-1.341-.85-.191-1.645.264-1.826 1.073-.09.396.029.771.355 1.117.279.293.279.293 1.404 1.121 1.322.975 1.764 1.837 1.506 2.988-.355 1.577-1.906 2.526-3.539 2.159-1.439-.322-2.275-1.418-2.283-2.989zm19.426 9.402c-1.115.118-2.027-.052-2.92-.53-2.326-1.247-3.236-4.223-1.994-6.537 1.268-2.365 4.248-3.255 6.627-1.979.914.49 1.482 1.1 2 2.125l-.611 1.14c-.398-1.188-.988-1.934-1.916-2.431-1.82-.977-4.168-.227-5.178 1.656-.988 1.845-.295 4.179 1.537 5.159.916.492 1.875.576 3.066.258zm5.223-1.393c1.658-1.984 4.797-2.236 6.824-.543 2.039 1.703 2.326 4.802.623 6.839-1.721 2.062-4.803 2.307-6.883.567-1.025-.855-1.676-2.205-1.729-3.587-.034-1.183.352-2.304 1.165-3.276zm1.207 6.117c1.639 1.368 4.053 1.152 5.432-.497 1.369-1.639 1.174-4.056-.455-5.417-1.605-1.342-4.041-1.124-5.375.473-.738.885-1.039 1.88-.912 2.956.117.975.597 1.89 1.31 2.485zm12.957.69.957 1.177c.674.828.973 1.417 1.025 2.062.068.776-.305 1.587-.99 2.146-1.102.896-2.471.813-3.473-.218l-1.367 4.952-.807-.99 1.4-4.78-.17-.206-3.184 2.588-.664-.816zm-2.287 4.068c.834 1.024 1.783 1.211 2.633.521.447-.362.68-.878.611-1.384-.049-.396-.238-.783-.654-1.298l-.391-.479-2.615 2.128zm8.418 4.17.861 1.467c.586.992.764 1.654.629 2.37-.121.708-.588 1.356-1.266 1.757-.629.371-1.396.48-2.039.304-.67-.193-1.254-.715-1.73-1.525l-.463-.788-3.539 2.083-.533-.907zm-2.758 3.824c.648 1.104 1.555 1.419 2.475.877.438-.257.723-.653.803-1.075.076-.452-.043-.903-.43-1.559l-.391-.666-2.885 1.697zm7.07 19.188c1.082-.181 2.07.54 2.252 1.634.172 1.026-.561 2.032-1.6 2.204-1.068.177-2.07-.54-2.244-1.593-.175-1.054.553-2.074 1.592-2.245zm4.764 26.406-10.492 2.035.244-1.125 2.83-.521.85-3.914-2.355-1.66.24-1.113zm-6.385.195 3.996-.729-3.324-2.361zm1.053 14.231-.914 1.693c-.721 1.338-1.492 2.088-2.588 2.52-1.26.502-2.66.4-3.936-.285-1.299-.701-2.125-1.803-2.398-3.162-.238-1.184-.045-2.197.676-3.533l.908-1.684zm-8.334-2.26c-.547 1.016-.703 1.871-.52 2.771.221 1.045.902 1.939 1.904 2.48 1.016.547 2.15.635 3.125.248.854-.34 1.488-.955 2.035-1.969l.434-.805-6.545-3.529zm2.094 12.584-.625.85-7.547-5.562.627-.848zm-3.317 4.357-.799.83-6.98-3.045 3.293 6.867-.789.818-4.498-9.627zm-8.695 8.287-.826.654-5.83-7.334.824-.656zm-9.221-1.717c-.832-.859-1.68-.988-2.521-.479-.889.537-1.189 1.672-.658 2.551.299.492.74.732 1.354.74.416.012.416.012 1.84-.16 1.469-.18 2.285.113 2.814.99.713 1.18.289 2.65-.996 3.428-.902.547-1.844.539-2.824.002l.434-.887c.801.402 1.279.408 1.906.029.744-.451 1.002-1.328.572-2.039-.211-.348-.555-.535-1.027-.561-.404-.018-.404-.018-1.791.162-1.629.213-2.543-.104-3.152-1.113-.838-1.385-.373-3.143 1.059-4.008 1.264-.764 2.623-.553 3.717.578zm-5.132 10.538-.965.424-3.771-8.58.965-.424zm-7.014-1.998c.646 2.506-.98 5.205-3.539 5.865-2.574.662-5.258-.908-5.922-3.48-.672-2.602.924-5.248 3.553-5.928 1.293-.332 2.77-.074 3.922.688.984.659 1.669 1.628 1.986 2.855zm-5.676-2.586c-2.07.533-3.303 2.625-2.766 4.707.533 2.068 2.613 3.316 4.67 2.787 2.027-.523 3.27-2.631 2.75-4.645-.287-1.117-.922-1.939-1.869-2.465-.863-.474-1.887-.617-2.785-.384zm-8.244 10.646-7.542-7.418.237 7.262-1.053.035-.32-9.791 7.541 7.402-.236-7.219 1.053-.035zm-19.012-5.998c-.734 2.482-3.517 3.959-6.052 3.211-2.547-.754-4.042-3.484-3.287-6.031.761-2.574 3.491-4.023 6.093-3.254 1.281.377 2.413 1.357 3.012 2.605.505 1.075.594 2.256.234 3.469zm-3.538-5.137c-2.049-.605-4.181.553-4.79 2.615-.605 2.049.533 4.188 2.569 4.791 2.009.596 4.157-.572 4.748-2.568.326-1.105.207-2.137-.337-3.074-.496-.852-1.3-1.5-2.19-1.764zm-12.077 4.537-3.794-1.936.44-.861 2.854 1.455 1.271-2.492-2.769-1.41.44-.863 2.768 1.41 2.105-4.133.938.479zm-12.444-7.587-.866-.762 2.711-7.117-6.705 3.615-.856-.75 9.407-4.947zm-8.665-8.274-.694-.793 7.056-6.174.694.793zm-4.876-15.269c.893-.562 1.55-.811 2.271-.85 1.57-.09 3.144.746 4.019 2.139 1.405 2.236.715 5.229-1.533 6.641-2.272 1.43-5.283.732-6.721-1.551-.554-.881-.812-1.928-.717-2.936.032-.453.116-.82.34-1.492l1.008.281c-.541 1.436-.484 2.527.195 3.611 1.138 1.807 3.523 2.33 5.345 1.186 1.761-1.105 2.326-3.504 1.242-5.229-.621-.986-1.797-1.643-2.911-1.621-.448-.002-.811.111-1.32.383l1.479 2.355-.818.516-2.08-3.307zm-6.418-2.375-1.777-4.514.902-.355 1.391 3.531 2.604-1.025-1.354-3.439.902-.354 1.354 3.438 3.414-1.344-1.391-3.531.901-.355 1.777 4.514zm-2.628-11.082.509 2.205-.945.217-1.256-5.449.945-.219.512 2.219 8.188-1.887.237 1.025zm23.314-28.293 1.637-4.283 1.662.635-.891 2.329 1.256.479.842-2.203 1.662.635-.842 2.205 1.299.496.891-2.328 1.662.635-1.639 4.283zm8.322-8.444-4.568-.104 1.519-2.1 2.397.255-.967-2.236 1.51-2.092 1.515 4.335 5.28.053-1.487 2.061-3.138-.146 1.066 3.011-1.482 2.051zm3.305-9.644 2.601-2.079c.737-.592 1.284-.798 2.002-.735.717.062 1.334.407 1.862 1.068.49.614.75 1.307.715 1.939-.03.676-.399 1.281-1.157 1.887l-1.021.817 1.68 2.099-1.637 1.31zm4.488 1.152c.625-.5.711-.972.279-1.51-.423-.53-.929-.562-1.533-.076l-.547.439 1.262 1.577zm4.266-7.268 4.152-1.938.752 1.61-2.258 1.054.567 1.217 2.138-.997.752 1.61-2.138.997.589 1.262 2.258-1.055.752 1.611-4.152 1.938zm8.58-3.45 3.191-.633c.901-.18 1.524-.08 2.084.312.518.366.893.957 1.022 1.609.14.7-.002 1.418-.375 1.897-.227.292-.461.476-.914.676l3.134 2.745-2.562.509-2.559-2.648.602 3.037-2.051.406zm3.137 3.064c.392-.076.687-.209.836-.387.191-.211.296-.564.238-.849-.057-.285-.287-.571-.545-.693-.207-.105-.529-.116-.92-.039l-.381.075.393 1.969zm7.339-4.448 2.093-.003.014 8.071-2.095.003zm8.421.55 1.994.555.418 4.587 2.822-3.686 2.016.561-.996 8.101-2.018-.562.674-4.636-3.121 3.954-.805-.224-.549-4.977-1.91 4.292-2.004-.558zm12.826 4.754 3.887 2.44-.945 1.508-2.111-1.327-.717 1.137 2 1.257-.947 1.508-1.998-1.257-.74 1.18 2.111 1.326-.947 1.506-3.885-2.44zm7.754 5.405 1.412 1.543-1.035 6.181 3.643-3.332 1.412 1.545-5.953 5.446-1.412-1.543 1.037-6.181-3.645 3.333-1.414-1.546zm7.033 12.001-.781-1.518 1.58-.813 2.541 4.924-1.58.814-.799-1.549-5.59 2.886-.961-1.861zm2.785 19.25c.943.036 1.652.813 1.615 1.771-.035.896-.826 1.617-1.732 1.58-.932-.035-1.652-.814-1.617-1.732.035-.92.816-1.655 1.734-1.619zm1.119 15.476-1.881 4.184-1.621-.729 1.021-2.273-1.227-.551-.969 2.152-1.621-.73.969-2.15-1.271-.57-1.02 2.273-1.621-.729 1.879-4.182zm-8.791 7.949 4.555.363-1.635 2.012-2.379-.393.838 2.289-1.627 2.002-1.264-4.414-5.268-.352 1.604-1.971 3.123.322-.895-3.066 1.596-1.963zm-3.849 9.438-2.711 1.928c-.768.547-1.326.723-2.037.619-.713-.104-1.307-.48-1.799-1.172-.455-.641-.674-1.346-.602-1.975.068-.674.471-1.256 1.26-1.816l1.064-.758-1.557-2.188 1.705-1.213zm-4.413-1.405c-.65.463-.764.93-.363 1.49.393.553.895.611 1.525.162l.57-.406-1.17-1.646zm-4.634 7.01-4.26 1.707-.66-1.654 2.314-.926-.5-1.248-2.191.877-.662-1.65 2.191-.879-.518-1.293-2.314.93-.662-1.652 4.26-1.705zm-8.772 2.963-3.225.451c-.912.129-1.529-.004-2.066-.43-.494-.396-.838-1.008-.93-1.666-.1-.709.082-1.418.482-1.879.242-.277.486-.447.951-.623l-2.979-2.92 2.59-.361 2.408 2.791-.43-3.07 2.074-.291zm-2.961-3.24c-.395.057-.697.172-.855.342-.205.197-.328.547-.287.834s.254.588.506.725c.199.119.521.146.916.092l.383-.055-.277-1.99zm-7.746 4.029-2.088-.145.559-8.055 2.091.146zm-8.24-1.035-1.957-.668-.151-4.604-3.029 3.518-1.982-.678 1.466-8.027 1.979.678-.94 4.588 3.346-3.768.789.271.262 4.998 2.154-4.174 1.969.674zm-12.534-5.484-3.736-2.658 1.031-1.449 2.03 1.445.779-1.096-1.924-1.367 1.031-1.449 1.924 1.369.807-1.137-2.031-1.443 1.031-1.449 3.736 2.658zm-7.429-5.821-1.324-1.623 1.386-6.115-3.828 3.123-1.324-1.623 6.256-5.105 1.324 1.623-1.385 6.113 3.828-3.125 1.323 1.623zm-6.344-12.392.693 1.561-1.625.723-2.252-5.064 1.627-.725.707 1.594 5.752-2.555.85 1.912zm-1.602-14.203c-.943.035-1.71-.688-1.746-1.643-.033-.895.7-1.674 1.606-1.709.933-.034 1.709.688 1.744 1.607.035.918-.684 1.708-1.604 1.745zm38.031-24.142c11.579 0 21.001 9.42 21.001 21 0 11.581-9.422 21.001-21.001 21.001s-21-9.422-21-21.001 9.421-21 21-21m0-1c-12.149 0-22 9.851-22 22 0 12.151 9.851 22.001 22 22.001s22.001-9.85 22.001-22.001c0-12.149-9.852-22-22.001-22zm0 0c-12.15 0-22 9.851-22 22 0 12.151 9.85 22.001 22 22.001 12.151 0 22.001-9.85 22.001-22.001 0-12.149-9.85-22-22.001-22zm6.638 9.457c-.23-.428-.646-.644-1.236-.644-.547 0-.918.246-1.137.729-.215.486-.32 1.508-.32 3.07v17.786c0 1.596.113 2.639.34 3.119.227.479.646.719 1.248.719.514.002.891-.223 1.113-.68.225-.453.344-1.227.344-2.316v-3.098h2.531v3.195c0 1.963-.297 3.289-.889 3.984-.588.691-1.654 1.039-3.174 1.039-1.5-.002-2.549-.453-3.135-1.348-.6-.896-.893-2.568-.893-5.006v-17.013c0-2.428.293-4.083.893-4.965.586-.884 1.635-1.323 3.135-1.32 1.541.001 2.592.345 3.184 1.032.582.691.879 2.011.879 3.957v2.748l-2.531-.004v-2.668c-.003-1.114-.122-1.887-.352-2.316zm7.261 26.454-2.664-.004v-3.152h2.672zm-18.219-.004v-3.152h2.672l-.005 3.156zm3.03-13.349c0 1.402-.337 2.377-1.018 2.92-.686.547-1.962.816-3.854.816h-.7v9.463l-2.401-.002v-28.736l3.098.005c1.894 0 3.173.275 3.852.828.683.553 1.023 1.53 1.023 2.936zm-3.02-12.817c-.313-.399-.955-.596-1.908-.596l-.646-.001.002 15.042h.644c.953 0 1.595-.193 1.918-.592.318-.395.479-1.29.479-2.676l-.005-8.5c.002-1.389-.156-2.279-.484-2.677z"/></svg>