<svg enable-background="new 69.5 69.5 160 160" height="160" viewBox="69.5 69.5 160 160" width="160" xmlns="http://www.w3.org/2000/svg"><path d="m149.5 70.5c43.561 0 79 35.439 79 79-.002 43.561-35.441 79-79 79-43.561 0-79-35.439-79-79s35.44-79 79-79m0-1c-44.184 0-80 35.817-80 80 0 44.184 35.816 80 80 80s79.998-35.818 80-80c0-44.183-35.816-80-80-80zm-61.112 72.027c-1.082-.176-1.788-1.172-1.61-2.268.166-1.026 1.18-1.745 2.221-1.575 1.067.173 1.787 1.173 1.616 2.227s-1.187 1.786-2.227 1.616zm2.787-23.405.851-1.472c.576-.997 1.064-1.477 1.753-1.711.675-.242 1.47-.157 2.149.236.633.365 1.105.979 1.268 1.624.16.678-.006 1.441-.477 2.257l-.457.791 3.55 2.051-.526.912zm4.682.517c.639-1.106.469-2.047-.454-2.582-.438-.253-.926-.309-1.33-.169-.431.157-.767.481-1.146 1.139l-.387.669 2.894 1.674zm3.782-5.577c-1.963-1.685-2.172-4.829-.449-6.834 1.73-2.016 4.832-2.262 6.849-.53 2.036 1.75 2.24 4.835.474 6.893-.87 1.013-2.228 1.646-3.611 1.68-1.186.02-2.303-.383-3.263-1.209zm6.134-1.124c1.393-1.621 1.209-4.038-.423-5.44-1.621-1.392-4.041-1.229-5.424.383-1.364 1.588-1.18 4.026.399 5.383.874.75 1.865 1.063 2.943.953.98-.106 1.902-.575 2.505-1.279zm.737-12.782.807-.678 6.029 7.172-.807.678zm5.166-4.631 10.192 2.824-3.732-6.233.904-.541 5.032 8.404-10.186-2.813 3.711 6.198-.904.541zm14.234-5.839-2.117.799-.342-.907 5.234-1.973.342.907-2.131.803 2.965 7.863-.986.372zm7.108-3.296 1.025-.241 1.928 8.179 2.503-.59.223.944-3.529.831zm7.988-1.554 4.824-.468.094.964-3.775.366.27 2.783 3.678-.356.094.964-3.678.356.354 3.65 3.775-.366.094.965-4.824.467zm9.859 6.309c.203 1.18.832 1.763 1.813 1.818 1.037.058 1.925-.71 1.981-1.734.031-.574-.196-1.023-.698-1.375-.338-.244-.338-.244-1.608-.904-1.313-.679-1.822-1.383-1.767-2.406.076-1.374 1.256-2.351 2.757-2.268 1.053.06 1.823.594 2.331 1.593l-.856.487c-.436-.784-.827-1.059-1.558-1.099-.868-.049-1.577.531-1.622 1.357-.023.407.154.756.532 1.044.324.242.324.242 1.569.874 1.464.743 2.039 1.521 1.975 2.698-.089 1.613-1.464 2.804-3.133 2.711-1.475-.081-2.477-1.024-2.742-2.571zm9.414.971c.013 1.196.541 1.874 1.502 2.085 1.017.222 2.015-.395 2.234-1.396.123-.562-.031-1.043-.471-1.47-.295-.295-.295-.295-1.445-1.152-1.188-.878-1.58-1.655-1.359-2.657.295-1.346 1.615-2.122 3.084-1.8 1.031.227 1.707.878 2.05 1.945l-.925.345c-.305-.845-.648-1.178-1.362-1.335-.853-.187-1.644.273-1.819 1.083-.088.398.031.771.359 1.115.281.292.281.292 1.41 1.115 1.328.968 1.773 1.828 1.521 2.98-.348 1.579-1.895 2.536-3.529 2.178-1.44-.315-2.281-1.406-2.297-2.979zm19.474 9.306c-1.114.125-2.028-.042-2.923-.514-2.334-1.236-3.258-4.208-2.027-6.529 1.258-2.371 4.232-3.275 6.616-2.012.919.486 1.489 1.091 2.013 2.114l-.605 1.143c-.405-1.186-.998-1.928-1.93-2.421-1.824-.967-4.168-.205-5.168 1.683-.979 1.85-.274 4.179 1.562 5.152.918.487 1.878.565 3.066.242zm5.214-1.421c1.648-1.993 4.787-2.261 6.822-.575 2.047 1.692 2.352 4.787.656 6.834-1.709 2.069-4.791 2.33-6.881.602-1.027-.852-1.685-2.196-1.744-3.578-.043-1.184.341-2.308 1.147-3.283zm1.237 6.111c1.646 1.36 4.06 1.132 5.431-.524 1.36-1.646 1.152-4.061-.482-5.414-1.613-1.334-4.047-1.104-5.373.499-.733.888-1.028 1.884-.897 2.959.121.977.605 1.889 1.321 2.48zm12.961.626.962 1.172c.678.824.98 1.413 1.037 2.058.072.775-.296 1.588-.979 2.149-1.098.9-2.467.826-3.476-.2l-1.343 4.958-.812-.987 1.377-4.785-.17-.206-3.169 2.604-.669-.814zm-2.267 4.079c.838 1.021 1.789 1.203 2.636.507.444-.364.675-.882.604-1.388-.052-.394-.242-.781-.662-1.292l-.393-.479-2.605 2.143zm8.439 4.128.87 1.462c.589.99.77 1.651.641 2.367-.119.708-.582 1.36-1.258 1.763-.627.374-1.395.488-2.037.314-.67-.191-1.257-.709-1.738-1.518l-.467-.785-3.527 2.101-.539-.905zm-2.737 3.839c.654 1.1 1.561 1.411 2.479.865.436-.26.721-.658.798-1.08.073-.453-.049-.904-.438-1.558l-.395-.663-2.875 1.711zm7.166 19.152c1.08-.186 2.072.529 2.26 1.623.176 1.025-.551 2.034-1.59 2.211-1.066.184-2.072-.529-2.252-1.581-.182-1.053.543-2.076 1.582-2.253zm4.892 26.378-10.48 2.088.238-1.127 2.827-.535.831-3.917-2.365-1.649.234-1.113zm-6.383.228 3.994-.747-3.338-2.345zm1.125 14.226-.906 1.7c-.713 1.341-1.48 2.093-2.574 2.529-1.258.509-2.658.416-3.936-.265-1.303-.694-2.137-1.793-2.416-3.151-.246-1.183-.057-2.196.658-3.536l.898-1.688zm-8.343-2.217c-.543 1.018-.695 1.875-.507 2.773.226 1.044.913 1.936 1.918 2.47 1.017.543 2.153.623 3.126.231.852-.342 1.483-.961 2.025-1.979l.43-.807-6.562-3.497zm2.132 12.601-.621.852-7.565-5.537.623-.852zm-3.271 4.345-.796.833-6.995-3.008 3.327 6.85-.785.824-4.545-9.605zm-8.654 8.332-.822.659-5.867-7.305.82-.662zm-9.228-1.671c-.837-.856-1.687-.979-2.524-.467-.888.543-1.182 1.679-.646 2.555.302.49.744.73 1.355.734.418.009.418.009 1.84-.17 1.467-.188 2.287.102 2.821.977.718 1.176.302 2.648-.981 3.434-.897.551-1.84.549-2.823.016l.428-.889c.806.398 1.284.401 1.907.021.742-.455.996-1.334.562-2.042-.212-.348-.556-.532-1.029-.555-.406-.016-.406-.016-1.791.17-1.627.223-2.543-.09-3.158-1.099-.844-1.379-.389-3.14 1.038-4.013 1.26-.77 2.62-.562 3.72.561zm-5.081 10.562-.963.429-3.815-8.562.964-.429zm-7.023-1.962c.658 2.501-.955 5.208-3.511 5.883-2.569.676-5.262-.884-5.938-3.453-.685-2.597.898-5.252 3.522-5.942 1.292-.34 2.769-.089 3.927.667.986.653 1.677 1.62 2 2.845zm-5.69-2.559c-2.066.544-3.288 2.641-2.74 4.721.544 2.064 2.629 3.305 4.684 2.764 2.024-.533 3.256-2.646 2.728-4.658-.294-1.113-.933-1.936-1.884-2.455-.866-.471-1.891-.608-2.788-.372zm-8.191 10.687-7.578-7.38.273 7.262-1.053.039-.369-9.789 7.577 7.366-.271-7.22 1.054-.039zm-19.041-5.902c-.721 2.484-3.496 3.977-6.035 3.238-2.551-.74-4.059-3.463-3.317-6.014.749-2.579 3.472-4.042 6.077-3.285 1.282.372 2.42 1.348 3.024 2.592.509 1.071.604 2.255.251 3.469zm-3.564-5.119c-2.052-.596-4.177.572-4.776 2.639-.596 2.053.555 4.188 2.594 4.779 2.011.584 4.153-.596 4.734-2.592.32-1.107.196-2.14-.352-3.074-.499-.847-1.308-1.492-2.2-1.752zm-12.053 4.597-3.805-1.915.436-.865 2.863 1.441 1.257-2.499-2.774-1.397.437-.865 2.774 1.396 2.085-4.142.942.474zm-12.485-7.528-.87-.756 2.675-7.133-6.686 3.648-.86-.745 9.382-4.995zm-8.706-8.229-.698-.79 7.024-6.209.698.789zm-4.952-15.248c.89-.564 1.546-.816 2.268-.857 1.569-.1 3.146.729 4.027 2.117 1.418 2.229.74 5.225-1.5 6.647-2.265 1.44-5.279.76-6.727-1.517-.559-.879-.824-1.925-.732-2.933.029-.452.111-.82.333-1.494l1.008.276c-.534 1.437-.472 2.529.214 3.609 1.146 1.801 3.536 2.312 5.35 1.16 1.756-1.117 2.311-3.518 1.217-5.234-.625-.984-1.804-1.635-2.919-1.608-.449.002-.81.116-1.318.39l1.492 2.348-.817.521-2.097-3.297zm-6.43-2.341-1.8-4.505.9-.359 1.409 3.525 2.598-1.039-1.372-3.434.901-.359 1.371 3.434 3.408-1.361-1.409-3.524.901-.36 1.8 4.504zm-2.682-11.068.519 2.202-.943.225-1.283-5.444.943-.224.523 2.217 8.179-1.929.242 1.026zm37.665-41.442c.849-.009 1.47-.204 1.932-.612.462-.41.552-.909.239-1.263-.289-.326-.635-.295-1.561.138-.846.395-1.205.518-1.582.529-.551.019-1.066-.236-1.539-.769-1.076-1.213-.974-2.775.248-3.858.635-.562 1.457-.984 2.345-1.205l.458 1.775c-.602.032-1.031.187-1.393.509-.381.336-.47.819-.205 1.118.097.108.256.178.41.169.309-.015.388-.036 1.279-.453 1.322-.624 2.19-.519 2.984.376.61.688.867 1.397.772 2.112-.105.756-.545 1.502-1.241 2.119-.716.634-1.658 1.048-2.693 1.174zm5.51-9.015-1.499.814-.849-1.563 4.868-2.642.849 1.562-1.53.83 3 5.529-1.838.999zm14.427-2.251c.292 1.15.25 1.822-.153 2.598-.461.891-1.281 1.499-2.418 1.786-1.197.304-2.367.125-3.09-.466-.551-.447-.863-1.042-1.154-2.191l-1.145-4.517 2.029-.515 1.072 4.236c.227.892.294 1.062.576 1.339.318.319.797.436 1.291.311.516-.13.911-.493 1.024-.934.099-.349.074-.593-.134-1.415l-1.073-4.234 2.029-.514zm4.199-5.112 2.09.12 3.574 5.153.282-4.932 2.091.12-.461 8.062-2.093-.12-3.572-5.154-.283 4.932-2.091-.119zm13.377 3.695-1.616-.543.565-1.686 5.254 1.762-.565 1.687-1.652-.554-2.001 5.964-1.984-.665zm5.43 6.418c.257.809.625 1.345 1.15 1.666.527.322 1.031.261 1.277-.142.227-.372.096-.693-.59-1.45-.625-.694-.85-1-.971-1.359-.18-.519-.088-1.087.283-1.696.844-1.383 2.367-1.744 3.762-.894.723.441 1.367 1.103 1.839 1.886l-1.563.961c-.207-.566-.479-.932-.894-1.183-.435-.265-.922-.208-1.13.133-.075.123-.096.296-.041.44.105.292.148.36.809 1.089.983 1.082 1.139 1.942.516 2.965-.479.785-1.082 1.238-1.791 1.357-.754.122-1.596-.08-2.391-.564-.814-.498-1.488-1.276-1.912-2.229zm15.527 12.574c.83-.448 1.836-.139 2.289.703.426.788.111 1.811-.688 2.241-.818.443-1.837.137-2.271-.671-.438-.81-.139-1.837.67-2.273zm3.277 13.779c-.485.695-.688 1.313-.627 1.927.063.615.42.979.89.93.434-.046.608-.343.797-1.35.172-.919.279-1.283.49-1.597.305-.458.812-.73 1.522-.805 1.612-.168 2.825.825 2.995 2.451.089.841-.049 1.758-.385 2.607l-1.713-.659c.324-.51.447-.948.398-1.431-.055-.505-.395-.858-.793-.817-.145.015-.293.104-.377.234-.167.261-.195.336-.375 1.305-.262 1.438-.852 2.086-2.045 2.21-.916.097-1.643-.106-2.168-.6-.555-.527-.905-1.318-1.002-2.244-.102-.952.111-1.96.611-2.878zm4.127 9.726.212-1.691 1.764.217-.685 5.496-1.762-.219.214-1.728-6.238-.774.256-2.076zm-6.57 13.012c-1.104-.435-1.625-.859-2.021-1.64-.453-.894-.469-1.912-.04-3.004.452-1.147 1.278-1.993 2.18-2.235.685-.188 1.35-.096 2.452.34l4.332 1.703-.765 1.947-4.062-1.598c-.854-.336-1.033-.381-1.425-.312-.442.072-.815.395-1.003.866-.193.495-.131 1.026.161 1.374.228.285.438.408 1.226.718l4.063 1.597-.767 1.947zm1.695 6.422-1.313 1.631-6.27-.094 3.846 3.101-1.314 1.629-6.285-5.067 1.314-1.63 6.269.095-3.845-3.102 1.314-1.63zm-10.793 8.719 1.384-.997 1.041 1.441-4.496 3.24-1.041-1.441 1.414-1.021-3.679-5.104 1.697-1.223zm-8.361.666c-.808-.263-1.457-.276-2.024-.036-.569.24-.813.686-.63 1.12.169.401.506.481 1.521.368.928-.104 1.307-.105 1.67.004.524.156.934.562 1.211 1.221.631 1.493.035 2.939-1.47 3.576-.778.33-1.694.466-2.604.393l.133-1.828c.58.16 1.037.151 1.482-.035.467-.199.707-.629.551-.996-.057-.135-.186-.25-.334-.293-.299-.084-.379-.088-1.355.021-1.453.168-2.242-.207-2.709-1.311-.357-.849-.375-1.603-.057-2.25.342-.683.996-1.248 1.854-1.609.881-.372 1.906-.465 2.928-.253zm-14.152 5.382c.009.943-.734 1.688-1.69 1.697-.895.009-1.651-.746-1.66-1.654-.009-.932.734-1.688 1.653-1.697s1.687.734 1.697 1.654zm-13.714-3.56c-.385-.758-.833-1.227-1.404-1.459-.572-.231-1.061-.092-1.238.347-.164.403.018.698.814 1.336.729.584 1 .851 1.179 1.184.26.484.261 1.06-.008 1.722-.61 1.5-2.056 2.103-3.567 1.486-.785-.318-1.527-.867-2.119-1.564l1.388-1.199c.296.525.624.842 1.073 1.023.471.19.943.057 1.094-.312.054-.135.045-.309-.03-.441-.151-.271-.204-.332-.974-.945-1.145-.908-1.438-1.732-.986-2.842.346-.852.868-1.396 1.55-1.629.724-.24 1.586-.179 2.449.172.886.36 1.675 1.021 2.247 1.895zm-10.526-.916 1.397.976-1.018 1.459-4.541-3.172 1.019-1.458 1.427.998 3.602-5.156 1.715 1.198zm-8.441-11.904c.9-.774 1.521-1.035 2.396-1.021 1.004.016 1.913.479 2.677 1.371.805.938 1.166 2.063.959 2.977-.156.692-.55 1.236-1.45 2.011l-3.537 3.036-1.364-1.59 3.316-2.846c.698-.603.82-.738.943-1.113.145-.428.035-.908-.296-1.295-.347-.403-.848-.597-1.292-.502-.357.066-.564.196-1.208.75l-3.317 2.846-1.363-1.59zm-6.447-1.512-.822-1.924 3.026-5.488-4.542 1.938-.821-1.926 7.424-3.169.822 1.926-3.026 5.488 4.541-1.938.822 1.926zm-2.645-13.606.237 1.689-1.762.248-.772-5.49 1.763-.248.242 1.727 6.234-.875.291 2.072zm3.316-7.709c.61-.591.927-1.16.979-1.775.053-.616-.227-1.04-.697-1.081-.434-.037-.663.221-1.036 1.174-.343.869-.518 1.207-.784 1.476-.386.393-.936.563-1.646.503-1.617-.141-2.618-1.345-2.479-2.973.074-.845.379-1.717.871-2.489l1.557.972c-.414.438-.619.846-.662 1.328-.043.507.225.919.623.953.145.013.309-.046.416-.159.213-.224.256-.294.614-1.21.53-1.363 1.231-1.886 2.426-1.784.917.079 1.592.417 2.016 1.001.444.621.64 1.464.56 2.393-.082.954-.48 1.903-1.146 2.709zm1.87-14.936c-.844-.424-1.166-1.426-.737-2.28.401-.8 1.42-1.128 2.231-.721.832.418 1.166 1.425.753 2.248-.413.821-1.425 1.166-2.247.753zm34.593-4.978c11.579 0 21 9.42 21 21s-9.421 21-21 21-21-9.421-21-21 9.421-21 21-21m0-1c-12.15 0-22 9.85-22 22s9.85 22 22 22 22-9.85 22-22-9.85-22-22-22zm0 0c-12.15 0-22 9.85-22 22s9.85 22 22 22 22-9.85 22-22-9.85-22-22-22zm6.639 9.457c-.231-.428-.647-.644-1.236-.644-.547 0-.92.246-1.139.73-.215.486-.32 1.508-.32 3.07v17.785c0 1.596.113 2.639.341 3.119.226.479.646.719 1.247.719.515.002.892-.223 1.115-.68.224-.453.342-1.227.342-2.315v-3.099h2.533v3.196c0 1.963-.299 3.289-.891 3.983-.588.691-1.654 1.039-3.174 1.039-1.5-.002-2.548-.452-3.134-1.348-.599-.896-.892-2.568-.892-5.005v-17.013c0-2.428.293-4.083.892-4.965.586-.884 1.634-1.323 3.134-1.32 1.541.001 2.594.344 3.184 1.032.582.691.881 2.011.881 3.957v2.748l-2.532-.004v-2.668c-.002-1.115-.121-1.888-.351-2.317zm7.259 26.453-2.664-.004v-3.152l2.672.001zm-18.219-.004v-3.152l2.673.001-.006 3.155zm3.031-13.349c0 1.402-.337 2.377-1.018 2.92-.685.547-1.962.816-3.853.816h-.701v9.463l-2.401-.002v-28.736l3.098.005c1.893 0 3.173.276 3.851.828.684.553 1.024 1.531 1.024 2.936zm-3.02-12.816c-.313-.399-.954-.596-1.908-.596l-.646-.001.002 15.042h.644c.954 0 1.595-.193 1.917-.591.32-.396.48-1.29.48-2.676l-.004-8.5c.001-1.39-.159-2.281-.485-2.678z"/></svg>