<svg enable-background="new 69.5 69.5 160 160" height="120" viewBox="69.5 69.5 160 160" width="120" xmlns="http://www.w3.org/2000/svg"><path style="fill: currentColor;" d="m149.5 70.5c43.561 0 79 35.439 79 79s-35.439 79-79 79-79-35.439-79-79 35.44-79 79-79m0-1c-44.183 0-80 35.817-80 80 0 44.184 35.817 80 80 80 44.184 0 80-35.816 80-80 0-44.183-35.816-80-80-80zm.002 59c11.579 0 21 9.42 21 21s-9.421 21-21 21-21-9.421-21-21 9.421-21 21-21m0-1c-12.15 0-22 9.85-22 22s9.85 22 22 22 22-9.85 22-22-9.85-22-22-22zm-61.114 14.029c-1.082-.176-1.788-1.172-1.61-2.268.166-1.026 1.18-1.745 2.221-1.576 1.067.174 1.787 1.174 1.616 2.228s-1.187 1.786-2.227 1.616zm2.787-23.405.851-1.472c.576-.997 1.064-1.477 1.753-1.711.675-.242 1.47-.157 2.149.236.633.365 1.105.979 1.268 1.624.16.678-.006 1.441-.477 2.257l-.457.79 3.55 2.052-.526.912zm4.682.517c.639-1.106.469-2.048-.454-2.582-.438-.253-.926-.309-1.33-.169-.431.157-.767.481-1.146 1.139l-.387.669 2.894 1.673zm3.781-5.578c-1.962-1.685-2.171-4.829-.449-6.834 1.731-2.016 4.833-2.262 6.849-.53 2.037 1.75 2.241 4.834.474 6.893-.87 1.013-2.228 1.645-3.61 1.68-1.187.02-2.304-.383-3.264-1.209zm6.135-1.124c1.392-1.621 1.208-4.039-.423-5.44-1.622-1.392-4.041-1.228-5.425.382-1.364 1.59-1.179 4.027.399 5.384.874.75 1.865 1.063 2.942.953.981-.106 1.903-.575 2.507-1.279zm.737-12.783.807-.677 6.029 7.171-.808.679zm5.167-4.629 10.192 2.824-3.732-6.233.904-.542 5.032 8.405-10.186-2.813 3.711 6.198-.904.541zm14.233-5.839-2.117.799-.342-.907 5.234-1.974.342.908-2.131.803 2.965 7.863-.986.372zm7.117-3.297 1.026-.24 1.918 8.181 2.504-.587.222.943-3.53.828zm7.979-1.553 4.824-.469.094.965-3.775.366.27 2.783 3.678-.356.094.964-3.678.356.354 3.65 3.775-.366.094.964-4.824.468zm9.861 6.309c.201 1.18.83 1.763 1.812 1.817 1.038.058 1.925-.709 1.98-1.733.032-.575-.195-1.023-.697-1.375-.338-.244-.338-.244-1.608-.905-1.312-.678-1.822-1.383-1.767-2.405.076-1.374 1.256-2.351 2.757-2.268 1.053.06 1.823.594 2.331 1.593l-.856.487c-.436-.784-.828-1.06-1.558-1.099-.868-.049-1.577.531-1.623 1.357-.021.406.155.756.533 1.043.324.242.324.242 1.569.875 1.464.743 2.039 1.521 1.976 2.698-.09 1.613-1.465 2.804-3.134 2.711-1.473-.081-2.477-1.024-2.742-2.571zm9.414.969c.012 1.197.539 1.875 1.5 2.085 1.016.223 2.016-.394 2.234-1.396.123-.564-.031-1.044-.47-1.47-.296-.295-.296-.295-1.446-1.152-1.188-.878-1.58-1.656-1.359-2.657.295-1.347 1.615-2.122 3.085-1.8 1.028.226 1.707.877 2.049 1.945l-.925.345c-.305-.845-.648-1.179-1.362-1.335-.851-.188-1.644.273-1.819 1.083-.088.398.032.771.359 1.115.281.292.281.292 1.41 1.115 1.328.968 1.773 1.828 1.521 2.98-.347 1.579-1.895 2.536-3.529 2.177-1.44-.315-2.28-1.406-2.297-2.979zm19.473 9.307c-1.115.125-2.029-.042-2.923-.515-2.334-1.236-3.257-4.207-2.027-6.528 1.257-2.371 4.232-3.275 6.616-2.012.918.486 1.489 1.091 2.012 2.114l-.604 1.143c-.406-1.186-.998-1.929-1.929-2.421-1.826-.967-4.17-.205-5.17 1.683-.979 1.85-.273 4.179 1.562 5.151.919.488 1.879.566 3.068.243zm5.214-1.42c1.647-1.993 4.787-2.261 6.822-.576 2.048 1.693 2.351 4.788.657 6.835-1.711 2.068-4.791 2.329-6.881.601-1.028-.851-1.686-2.195-1.746-3.577-.041-1.185.342-2.308 1.148-3.283zm1.237 6.11c1.646 1.361 4.061 1.133 5.431-.524 1.36-1.646 1.151-4.061-.481-5.413-1.614-1.335-4.049-1.104-5.375.498-.733.889-1.028 1.885-.896 2.96.12.976.606 1.888 1.321 2.479zm12.96.627.962 1.172c.678.824.98 1.413 1.037 2.058.072.775-.296 1.588-.979 2.149-1.098.9-2.467.826-3.476-.2l-1.343 4.958-.812-.987 1.377-4.785-.17-.206-3.169 2.604-.669-.815zm-2.267 4.078c.838 1.021 1.789 1.204 2.636.508.444-.364.675-.882.604-1.388-.052-.394-.242-.781-.662-1.292l-.393-.479-2.604 2.143zm8.44 4.129.869 1.462c.59.99.771 1.651.641 2.367-.117.707-.58 1.359-1.257 1.763-.628.374-1.396.488-2.038.314-.67-.191-1.256-.709-1.738-1.518l-.467-.785-3.527 2.101-.539-.906zm-2.738 3.839c.655 1.099 1.562 1.41 2.479.864.435-.26.721-.658.798-1.08.073-.452-.048-.903-.438-1.557l-.396-.664-2.875 1.712zm7.164 19.152c1.081-.186 2.073.529 2.26 1.623.176 1.025-.549 2.034-1.588 2.211-1.067.184-2.072-.529-2.254-1.581-.181-1.053.543-2.076 1.582-2.253zm4.892 26.378-10.48 2.086.238-1.127 2.828-.535.83-3.917-2.365-1.649.236-1.113zm-6.381.226 3.992-.747-3.338-2.345zm1.125 14.228-.906 1.7c-.713 1.341-1.48 2.093-2.574 2.529-1.258.509-2.658.416-3.936-.265-1.303-.694-2.137-1.793-2.416-3.151-.246-1.183-.057-2.196.658-3.536l.898-1.688zm-8.343-2.217c-.543 1.018-.695 1.875-.507 2.772.226 1.045.913 1.936 1.918 2.471 1.017.543 2.153.622 3.126.231.852-.342 1.483-.961 2.025-1.979l.43-.807-6.562-3.497zm2.156 12.574-.621.852-7.572-5.524.621-.853zm-3.295 4.372-.796.833-6.995-3.008 3.327 6.85-.785.823-4.545-9.604zm-8.654 8.331-.822.659-5.867-7.306.82-.66zm-9.228-1.671c-.837-.856-1.687-.979-2.525-.468-.887.543-1.181 1.68-.646 2.556.3.489.742.729 1.354.735.417.008.417.008 1.841-.17 1.467-.188 2.284.101 2.819.976.72 1.176.304 2.649-.979 3.435-.898.551-1.84.547-2.824.014l.428-.889c.805.399 1.283.402 1.907.021.743-.455.995-1.335.563-2.042-.214-.349-.558-.532-1.031-.556-.405-.016-.405-.016-1.789.172-1.629.222-2.545-.092-3.159-1.1-.845-1.379-.39-3.14 1.038-4.013 1.26-.769 2.619-.563 3.72.562zm-5.082 10.564-.962.428-3.816-8.562.963-.429zm-7.022-1.965c.658 2.502-.955 5.209-3.512 5.883-2.568.676-5.262-.883-5.939-3.451-.684-2.598.899-5.252 3.523-5.944 1.292-.34 2.77-.088 3.928.668.986.652 1.675 1.62 2 2.844zm-5.69-2.558c-2.067.544-3.289 2.64-2.741 4.72.544 2.066 2.63 3.307 4.683 2.766 2.025-.533 3.258-2.646 2.729-4.658-.294-1.114-.932-1.937-1.883-2.455-.867-.471-1.891-.609-2.788-.373zm-8.192 10.687-7.577-7.379.273 7.262-1.054.039-.368-9.789 7.577 7.366-.271-7.22 1.053-.039zm-19.04-5.901c-.722 2.483-3.497 3.976-6.035 3.238-2.552-.74-4.06-3.464-3.318-6.015.749-2.578 3.472-4.042 6.078-3.285 1.282.372 2.419 1.347 3.024 2.593.509 1.07.603 2.254.251 3.469zm-3.565-5.12c-2.051-.597-4.177.573-4.777 2.639-.595 2.052.557 4.188 2.595 4.78 2.012.583 4.154-.596 4.734-2.594.321-1.106.196-2.139-.352-3.072-.499-.848-1.308-1.493-2.2-1.753zm-12.054 4.598-3.803-1.915.436-.865 2.862 1.44 1.257-2.498-2.773-1.397.436-.864 2.775 1.396 2.084-4.143.942.475zm-12.483-7.528-.87-.754 2.675-7.134-6.687 3.649-.859-.746 9.382-4.996zm-8.707-8.229-.697-.789 7.024-6.209.698.789zm-4.951-15.247c.889-.565 1.546-.815 2.267-.858 1.569-.1 3.146.73 4.028 2.118 1.417 2.229.74 5.224-1.501 6.647-2.265 1.441-5.278.759-6.726-1.518-.559-.877-.824-1.924-.732-2.933.029-.451.111-.819.333-1.493l1.008.276c-.534 1.437-.473 2.53.214 3.608 1.146 1.803 3.536 2.314 5.35 1.161 1.756-1.116 2.311-3.518 1.217-5.235-.626-.983-1.805-1.635-2.92-1.607-.448.002-.809.116-1.318.389l1.493 2.35-.817.521-2.097-3.297zm-6.431-2.341-1.8-4.504.9-.36 1.409 3.524 2.598-1.038-1.372-3.433.9-.36 1.373 3.434 3.407-1.362-1.409-3.523.901-.36 1.8 4.505zm-2.682-11.069.52 2.202-.943.225-1.283-5.444.943-.224.522 2.217 8.18-1.928.241 1.025zm43.792-50.846-1.514.79-.822-1.579 4.917-2.561.821 1.578-1.545.805 2.908 5.583-1.857.968zm6.29-3.966c.577-.812 1.513-1.443 2.603-1.727 1.299-.337 2.477-.181 3.536.481.923.572 1.583 1.476 1.866 2.564.32 1.229.082 2.529-.64 3.554-.614.859-1.489 1.437-2.636 1.733-2.46.639-4.754-.69-5.387-3.125-.3-1.157-.064-2.456.658-3.48zm4.253 4.631c1.217-.316 1.945-1.554 1.629-2.772-.312-1.206-1.552-1.934-2.77-1.617-1.206.313-1.945 1.556-1.638 2.737.323 1.24 1.549 1.971 2.779 1.652zm7.316-6.775c.781-.618 1.855-.961 2.979-.928 1.342.039 2.428.519 3.26 1.451.728.807 1.105 1.859 1.074 2.984-.037 1.27-.629 2.449-1.606 3.23-.83.653-1.832.962-3.017.928-2.539-.075-4.37-1.992-4.295-4.507.035-1.195.627-2.376 1.605-3.158zm2.784 5.636c1.261.036 2.306-.949 2.343-2.207.036-1.244-.949-2.291-2.207-2.326-1.245-.038-2.303.949-2.339 2.169-.037 1.281.937 2.326 2.203 2.364zm7.769-5.457 2.024.533-1.604 6.082 2.433.642-.452 1.72-4.457-1.175zm5.068 7.471c.338.78.757 1.277 1.313 1.544.557.266 1.053.156 1.256-.269.188-.393.027-.7-.729-1.386-.692-.628-.945-.912-1.103-1.255-.23-.501-.195-1.075.113-1.719.703-1.462 2.184-1.973 3.656-1.264.764.366 1.473.961 2.02 1.694l-1.461 1.111c-.264-.542-.572-.879-1.008-1.087-.459-.221-.938-.116-1.113.245-.062.13-.063.303.004.443.134.28.185.344.914 1.003 1.088.979 1.328 1.82.809 2.9-.398.83-.953 1.341-1.648 1.531-.738.196-1.596.08-2.437-.324-.861-.415-1.609-1.123-2.127-2.03zm13.777 7.481c.713-.62 1.762-.538 2.389.182.588.676.506 1.742-.18 2.338-.703.612-1.762.538-2.365-.156-.604-.693-.54-1.76.156-2.364zm8.743 8.91-.69-1.558 1.625-.722 2.246 5.064-1.625.721-.707-1.592-5.75 2.549-.85-1.913zm3.568 6.484c.774.625 1.348 1.599 1.563 2.703.258 1.318.03 2.486-.695 3.504-.629.888-1.571 1.492-2.676 1.708-1.248.243-2.53-.073-3.51-.856-.82-.665-1.344-1.574-1.572-2.739-.487-2.494.979-4.705 3.449-5.188 1.176-.23 2.462.085 3.441.868zm-4.888 3.965c.242 1.235 1.437 2.038 2.672 1.796 1.224-.239 2.025-1.433 1.783-2.667-.239-1.225-1.436-2.038-2.633-1.803-1.26.246-2.066 1.427-1.822 2.674zm6.329 7.736c.569.818.849 1.912.746 3.033-.121 1.338-.666 2.396-1.647 3.168-.851.679-1.925.992-3.046.893-1.266-.116-2.409-.778-3.131-1.805-.603-.868-.851-1.887-.742-3.067.229-2.532 2.255-4.244 4.764-4.018 1.19.108 2.334.77 3.056 1.796zm-5.799 2.442c-.113 1.252.807 2.356 2.062 2.471 1.241.112 2.345-.809 2.458-2.062.113-1.243-.807-2.359-2.023-2.469-1.281-.116-2.384.792-2.497 2.06zm4.965 8.109-.658 1.986-5.973-1.979-.793 2.391-1.689-.56 1.451-4.377zm-7.76 4.553c-.799.289-1.318.676-1.619 1.217-.302.537-.222 1.039.19 1.271.38.212.694.069 1.426-.646.668-.651.966-.887 1.318-1.022.514-.199 1.084-.129 1.706.219 1.416.789 1.834 2.299 1.039 3.724-.414.739-1.051 1.409-1.813 1.909l-1.021-1.522c.559-.229.912-.516 1.148-.939.246-.443.172-.928-.178-1.122-.126-.071-.299-.084-.443-.026-.285.117-.354.162-1.056.853-1.043 1.022-1.897 1.213-2.94.629-.805-.446-1.281-1.032-1.428-1.737-.15-.748.02-1.598.473-2.41.465-.834 1.219-1.536 2.154-1.996zm-5.656 10.859c.645.689.6 1.742-.102 2.395-.654.611-1.725.564-2.344-.1-.637-.682-.6-1.742.074-2.369.672-.627 1.745-.6 2.372.074zm-8.61 9.031 1.535-.744.777 1.602-4.988 2.42-.776-1.602 1.567-.76-2.75-5.664 1.887-.914zm-6.355 3.772c-.599.795-1.552 1.4-2.646 1.652-1.309.304-2.482.115-3.522-.576-.907-.598-1.542-1.52-1.796-2.615-.285-1.236-.012-2.527.736-3.533.638-.843 1.527-1.396 2.683-1.662 2.476-.57 4.732.82 5.3 3.271.267 1.168-.005 2.459-.755 3.463zm-4.123-4.746c-1.228.283-1.988 1.502-1.705 2.729.278 1.214 1.498 1.976 2.725 1.691 1.215-.279 1.986-1.502 1.713-2.691-.291-1.251-1.498-2.014-2.733-1.729zm-7.526 6.576c-.797.596-1.88.91-3.003.844-1.34-.074-2.412-.586-3.218-1.539-.704-.828-1.055-1.889-.99-3.012.073-1.268.696-2.432 1.696-3.184.848-.631 1.857-.912 3.039-.844 2.535.146 4.312 2.11 4.167 4.621-.068 1.196-.69 2.359-1.691 3.114zm-2.628-5.709c-1.255-.072-2.328.884-2.399 2.139-.07 1.244.886 2.316 2.14 2.389 1.244.07 2.328-.885 2.397-2.104.074-1.281-.87-2.351-2.138-2.424zm-7.96 5.238-2.009-.592 1.779-6.039-2.416-.711.503-1.709 4.425 1.306zm-4.815-7.603c-.316-.789-.722-1.298-1.27-1.58-.549-.283-1.048-.186-1.264.234-.199.387-.047.697.691 1.404.675.646.921.938 1.068 1.283.215.508.166 1.08-.162 1.715-.742 1.442-2.236 1.914-3.689 1.166-.754-.391-1.443-1.004-1.971-1.752l1.49-1.07c.248.551.547.895.979 1.115.451.231.934.143 1.117-.213.066-.131.073-.304.011-.444-.128-.282-.175-.349-.886-1.028-1.062-1.008-1.279-1.855-.73-2.922.422-.816.99-1.312 1.691-1.484.742-.176 1.596-.035 2.426.393.85.438 1.576 1.167 2.07 2.088zm-11.03-5.292c-.668.665-1.72.655-2.395-.022-.632-.635-.621-1.702.022-2.344.66-.656 1.721-.653 2.369-.004.65.652.655 1.72.004 2.37zm-9.313-8.294.796 1.508-1.573.83-2.585-4.9 1.572-.829.814 1.538 5.564-2.934.977 1.852zm-3.997-6.24c-.816-.572-1.453-1.505-1.742-2.592-.347-1.299-.198-2.479.459-3.543.566-.928 1.467-1.592 2.554-1.883 1.228-.326 2.529-.098 3.559.617.864.609 1.446 1.48 1.751 2.627.654 2.456-.66 4.761-3.092 5.408-1.159.309-2.46.079-3.489-.634zm4.607-4.286c-.323-1.215-1.567-1.937-2.784-1.611-1.203.32-1.924 1.564-1.602 2.779.322 1.205 1.569 1.938 2.751 1.623 1.238-.33 1.962-1.562 1.635-2.791zm-6.822-7.273c-.623-.775-.973-1.85-.947-2.974.031-1.342.504-2.432 1.43-3.271.805-.732 1.855-1.119 2.979-1.092 1.271.029 2.454.613 3.243 1.587.658.827.975 1.826.947 3.011-.06 2.541-1.967 4.384-4.482 4.327-1.197-.027-2.382-.613-3.17-1.588zm5.621-2.822c.028-1.258-.965-2.297-2.223-2.326-1.246-.029-2.285.963-2.314 2.221-.029 1.247.963 2.298 2.186 2.326 1.282.031 2.322-.951 2.351-2.221zm-5.498-7.759.521-2.025 6.092 1.568.627-2.437 1.723.443-1.148 4.464zm7.434-5.081c.777-.343 1.271-.765 1.533-1.323.265-.558.149-1.053-.275-1.255-.395-.186-.699-.022-1.381.74-.623.696-.904.952-1.247 1.111-.497.233-1.072.203-1.718-.102-1.467-.692-1.986-2.169-1.289-3.646.362-.767.951-1.477 1.682-2.03l1.119 1.453c-.539.266-.873.577-1.08 1.014-.219.459-.109.939.252 1.109.131.062.305.063.443-.004.277-.136.342-.187.997-.921.971-1.093 1.81-1.338 2.894-.827.831.393 1.348.944 1.541 1.637.201.737.091 1.595-.308 2.438-.408.864-1.11 1.616-2.014 2.14zm4.928-11.234c-.685-.65-.703-1.704-.045-2.396.617-.649 1.688-.668 2.346-.043.675.642.703 1.703.068 2.37-.633.666-1.703.702-2.369.069zm28.901 2.939c-12.151 0-22 9.85-22 22s9.849 22 22 22c12.15 0 22-9.85 22-22s-9.85-22-22-22zm6.639 9.457c-.231-.428-.647-.644-1.236-.644-.547 0-.92.246-1.139.73-.215.486-.32 1.508-.32 3.07v17.785c0 1.596.113 2.639.341 3.119.226.479.646.719 1.247.719.515.002.892-.223 1.115-.68.224-.453.342-1.227.342-2.315v-3.099h2.533v3.196c0 1.963-.299 3.289-.891 3.983-.588.691-1.654 1.039-3.174 1.039-1.5-.002-2.549-.452-3.134-1.348-.599-.896-.892-2.568-.892-5.005v-17.013c0-2.428.293-4.083.892-4.965.585-.884 1.634-1.323 3.134-1.32 1.541.001 2.594.344 3.184 1.032.582.691.881 2.011.881 3.957v2.748l-2.532-.004v-2.668c-.002-1.115-.121-1.888-.351-2.317zm7.259 26.453-2.664-.004v-3.152l2.672.001zm-18.219-.004v-3.152l2.673.001-.006 3.155zm3.03-13.349c0 1.402-.336 2.377-1.018 2.92-.684.547-1.961.816-3.852.816h-.701v9.463l-2.401-.002v-28.736l3.098.005c1.893 0 3.173.276 3.851.828.684.553 1.023 1.531 1.023 2.936zm-3.019-12.816c-.313-.399-.954-.596-1.908-.596l-.646-.001.002 15.042h.644c.954 0 1.595-.193 1.918-.591.319-.396.479-1.291.479-2.676l-.004-8.5c.001-1.39-.158-2.281-.485-2.678z"/></svg>
