<svg enable-background="new 69.5 69.5 160 160" height="160" viewBox="69.5 69.5 160 160" width="160" xmlns="http://www.w3.org/2000/svg"><path d="m149.5 69.5c-44.183 0-80 35.817-80 80 0 32.044 18.848 59.674 46.055 72.443 21.129-14.396 35.019-38.627 35.019-66.123l.001.059c.021 27.088 13.518 51.006 34.137 65.462 26.524-13.026 44.788-40.296 44.788-71.841 0-44.183-35.816-80-80-80z" fill="#8895a9"/><path d="m150.574 93.26h-.021c-.521 0-1.129 1.333-1.615 2.705l-4.141-.355c-1.332-.115-2.677.032-3.922.429l-.032.01c-.438.139-.438.645 0 .783l.032.011c1.245.396 2.59.542 3.922.429l3.812-.327c-.13.409-.243.792-.333 1.109-.142.492-.521.88-1.013 1.029-.754.23-1.431.641-1.975 1.186-.865.864-1.398 2.058-1.398 3.377v4.689c0 .833-.678 1.508-1.51 1.508l-26.148 3c-1.631 0-2.954 1.323-2.954 2.955v4.94c0 1.632 1.323 2.955 2.954 2.955l26.234 1.311c.793.04 1.421.688 1.434 1.481.095 5.941.793 10.842 2.088 16.819l1.319 6.101c.084.391.006.799-.216 1.131-.223.332-.57.56-.964.63l-3.978.714c-2.703.484-4.67 1.011-4.67 3.756v.388c0 1.539 1.247 2.785 2.783 2.785l8.213-.617c.182-.015.354.082.438.244.213.407.638.688 1.131.688h.529z" fill="#fff"/><path d="m184.914 112.842-26.148-3c-.832 0-1.509-.675-1.509-1.508v-4.689c0-1.319-.534-2.513-1.397-3.377-.545-.544-1.221-.955-1.977-1.186-.49-.149-.871-.538-1.012-1.029-.09-.317-.203-.7-.334-1.109l3.812.327c1.332.114 2.676-.033 3.922-.429l.033-.011c.438-.139.438-.645 0-.783l-.033-.01c-1.246-.396-2.59-.543-3.922-.429l-4.14.355c-.487-1.372-1.095-2.705-1.617-2.705h-.02v65.862h.526c.494 0 .918-.28 1.133-.688.082-.162.254-.259.437-.244l8.213.617c1.537 0 2.785-1.246 2.785-2.785v-.388c0-2.745-1.969-3.271-4.671-3.756l-3.979-.714c-.394-.07-.742-.298-.965-.63-.222-.332-.299-.74-.215-1.131l1.319-6.101c1.294-5.978 1.993-10.878 2.087-16.819.014-.795.639-1.441 1.434-1.481l26.234-1.311c1.632 0 2.955-1.323 2.955-2.955v-4.94c.004-1.63-1.319-2.953-2.951-2.953z" fill="#d4e9f4"/><path d="m154.029 116.719c0 1.909-1.547 3.457-3.455 3.457s-3.457-1.548-3.457-3.457c0-1.91 1.549-3.458 3.457-3.458 1.908.001 3.455 1.549 3.455 3.458m3.364-3.773c0-.999-.81-1.81-1.808-1.81s-1.81.812-1.81 1.81c0 1 .812 1.811 1.81 1.811s1.808-.81 1.808-1.811" fill="#8895a9"/><path d="m184.711 221.341c-20.619-14.456-34.117-38.374-34.137-65.462v73.594c12.238-.162 23.815-3.063 34.137-8.132z" fill="#d4e9f4"/><path d="m115.555 221.943c10.306 4.839 21.806 7.557 33.945 7.557l1.074-.027v-73.594l-.001-.059c0 27.496-13.889 51.729-35.018 66.123z" fill="#fff"/></svg>