<svg enable-background="new 73.5 70.5 160 160" height="160" viewBox="73.5 70.5 160 160" width="160" xmlns="http://www.w3.org/2000/svg" xmlns:xlink="http://www.w3.org/1999/xlink"><linearGradient id="a" gradientTransform="matrix(-.706 .709 .709 .706 1924.444 -2903.285)" gradientUnits="userSpaceOnUse" x1="3407.404" x2="3416.516" y1="868.132" y2="868.132"><stop offset=".005" stop-color="#9cb5ce"/><stop offset=".269" stop-color="#e2eaf1"/><stop offset=".33" stop-color="#fff"/><stop offset=".396" stop-color="#e1eaf1"/><stop offset=".736" stop-color="#97b1d4"/><stop offset="1" stop-color="#687c91"/></linearGradient><linearGradient id="b" gradientTransform="matrix(1 0 0 -1 0 301)" gradientUnits="userSpaceOnUse" x1="125.088" x2="125.088" y1="261.883" y2="208.995"><stop offset="0" stop-color="#626366"/><stop offset=".554" stop-color="#4d4d4f"/><stop offset=".617" stop-color="#49484a"/><stop offset="1" stop-color="#302d2f"/></linearGradient><circle cx="153.5" cy="150.5" fill="#e2676c" r="80"/><path d="m101.516 115.456v-.005zm.002.022v-.01zm.01.016-.007-.005.005.005zm.002.018-.002-.012zm.08.147-.08-.141zm77.883 10.612.172.159-12.256 12.256-8.104 8.104-5.331-5.304 8.469-7.848c-1.252-2.684-1.898-5.578-1.898-8.482 0-5.167 1.99-10.325 5.953-14.25 3.779-3.759 9.109-5.573 14.378-5.573 2.516 0 5.01.415 7.304 1.219l-11.062 10.936c-.756.752-1.109 1.778-1.109 2.794 0 .703.177 1.418.564 2.033l.433.676c.735 1.156 1.498 2.271 2.487 3.28zm-66.569 53.4c-1.851 1.84-2.777 4.242-2.78 6.661.003 2.383.898 4.755 2.711 6.589l.168.152 3.023-3.022c-.98-.927-1.599-2.229-1.599-3.683 0-2.806 2.273-5.08 5.08-5.08 1.454 0 2.755.619 3.681 1.601l1.182-1.183c-.098-.276-.161-.57-.161-.881 0-1.468 1.19-2.658 2.657-2.658.311 0 .604.063.881.161l25.764-25.764-5.446-5.474z" fill="#fff"/><path d="m148.083 147.091-5.008 4.642 2.129 2.52v-.311l.969 1 .039-.076c.794.812 1.641 1.652 2.514 2.505l4.805-4.806z" fill="#d4e9f4"/><path d="m162.442 133.639-1.539 1.427c1.029 2.046 2.371 3.947 4.026 5.623l.248.229 1.415-1.415-.24-.22c-1.672-1.692-2.96-3.61-3.91-5.644zm36.861-15.836-11.063 10.949c-.752.732-1.764 1.072-2.754 1.072-.724 0-1.453-.18-2.082-.591l-.668-.435c-1.08-.707-2.119-1.448-3.07-2.367l-12.256 12.256-.815.816-7.287 7.288 5.456 5.429 8.098-8.562c2.473 1.039 5.106 1.573 7.75 1.575 5.101-.003 10.19-1.932 14.107-5.795 3.854-3.804 5.725-9.21 5.723-14.561 0-2.43-.387-4.845-1.139-7.074zm-71.536 60.525c1.032.365 1.776 1.341 1.776 2.497 0 1.471-1.19 2.659-2.657 2.659-1.157 0-2.132-.744-2.496-1.778l-1.182 1.183c.858.909 1.394 2.129 1.394 3.479 0 2.804-2.271 5.079-5.074 5.079-1.352 0-2.572-.536-3.481-1.396l-3.023 3.022c1.814 1.747 4.145 2.626 6.49 2.626 2.388 0 4.762-.901 6.579-2.693l32.975-34.877-5.535-5.562z" fill="#d4e9f4"/><path d="m199.61 190.715v-.002s-25.867-32.623-41.723-48.267c-.132-.128-11.75-2.85-13.393-3.235l-.197-.046-.354.356s3.2 13.436 3.336 13.577c15.542 16.03 48.497 41.467 48.497 41.467h.002c1.531 1.367 3.496 1.682 4.52.688l.009-.01.013-.013c.108-.114.201-.239.279-.379l-.005.004c.623-1.08.239-2.779-.984-4.14z" fill="#784749"/><path d="m128.897 130.671c.459-.032.722-.071.722-.071l2.85-2.861 2.852-2.861s.035-.26.064-.719c-3.574.721-6.269 3.335-6.488 6.512z" fill="#5d3c21"/><path d="m130.646 110.907c-5.148-4.853-14.275-2.578-18.886-4.364-.179-.07-.352-.142-.515-.224l-.009-.001c-.463-.211-.495-.198-.273.275l.048.115c2.125 4.452-.403 13.995 4.616 19.278.242.254.49.49.741.718l.176.157c.247.217.497.424.752.618l.109.08c.23.172.462.333.696.487l.185.12c.256.163.515.316.774.46l.181.095c.223.118.444.23.668.335l.184.087c.257.117.513.225.77.325l.227.085.651.23.161.054c.25.08.499.151.745.217l.244.063.664.157.178.037.623.115.231.039.656.093.172.019.52.053.19.016.589.038.143.006.485.014.099.002.523-.001.068-.001c.983-.018 1.586-.105 1.586-.105l2.85-2.861 2.852-2.861c0 .001 1.199-8.435-4.674-13.97z" fill="#784749"/><path d="m129.315 130.695v-.002zm.002.015.001-.004zm.003.015v-.005zm.006.012-.005-.005zm.002.013-.001-.009zm.058.109-.058-.104z" fill="#fff"/><path d="m131.986 127.084c1.924-1.928 3.223-2.515 3.886-2.543l-.092-.067c-.374-.299-1.665.017-4.026 2.387-2.214 2.223-2.693 3.654-2.39 4.024l.092.127c.03-.675.674-2.065 2.53-3.928z" fill="url(#a)"/><path d="m158.052 142.648-.034-.036c-.018-.079-.056-.139-.103-.189v-.006c-.448-.488-.991-1.029-1.598-1.605l-.002-.003c-.312-.296-.642-.602-.986-.916l-.207-.187c-.481-.434-.989-.881-1.521-1.341h.002l-.093-.079-.085-.071h.002l-.116-.099c-6.999-6-17.531-13.644-17.531-13.644-.374-.299-1.665.017-4.026 2.387-2.214 2.223-2.693 3.654-2.39 4.024 0 0 6.963 9.662 12.767 16.627v.001l.183.217.174.207.536.632.032.04.007.006.143.172.001-.003c.459.537.906 1.05 1.338 1.532v.002l.152.169v.001l.055.06c.276.308.548.603.811.884l.086.092.001-.002c.566.603 1.1 1.138 1.578 1.578l-.004-.024.021.051c.059.06.124.11.213.137l.027.027.003-.017c.461.095 1.596-.541 5.816-4.779 4.072-4.09 4.792-5.338 4.725-5.841z" fill="#4b2a36"/><path d="m133.121 112.36c-1.397-1.856-3.602-3.675-6.267-4.48-.262-.08-.512-.149-.754-.213l-.07-.02-.713-.171-.013-.003c-1.65-.36-3.067-.421-5.58-.602-.939-.066-3.236-.25-4.192-.4-1.356-.211-2.715-.54-4.023-.942-.702-.217-1.609-.613-1.928-.134-.397.596.543 2.185.762 2.725 1.146 2.835.891 4.86 1.297 8.673.135 1.262 1.167 6.882 2.066 7.542h-.002l.005.002.129.055.026.002.127-.029c.333-.201 1.774-5.148 4.688-6.313l.344-.116.268-.059.053-.011c.209-.033.407-.042.6-.03l-.014-.001c1.295.071 2.275 1.066 3.638 1.448.281.078.569.149.854.191h-.014l.303.033.108.001.232-.006.117-.012.249-.057.067-.018c.098-.035.191-.084.282-.143l.077-.059.188-.175.073-.084c.078-.099.15-.208.215-.34.508-1.055-.434-1.986-.191-3.013.033-.146.08-.271.133-.388l.045-.09.147-.227.05-.065c.072-.078.148-.145.232-.199l.066-.035.205-.092.111-.034.205-.037.109-.014c1.334-.08 3.254 1.173 4.023 1.667.721.461 1.291.944 2.075.91l.206-.019.123-.021c.118-.025.239-.058.369-.109 1.542-.603-.218-3.306-1.106-4.488z" fill="#fff"/><path d="m124.913 72.621.35.35-.343-.344z" fill="url(#b)"/></svg>